/* XPM */
static char * Sol_xpm[] = {
"64 64 522 2",
"  	c #73706E",
". 	c #625E5A",
"+ 	c #5F5B58",
"@ 	c #605C59",
"# 	c #615C59",
"$ 	c #5B5755",
"% 	c #565251",
"& 	c #52504E",
"* 	c #51504F",
"= 	c #545453",
"- 	c #565656",
"; 	c #545454",
"> 	c #515151",
", 	c #555555",
"' 	c #535353",
") 	c #5B5958",
"! 	c #65615D",
"~ 	c #6C6864",
"{ 	c #716F6D",
"] 	c #7D7C7C",
"^ 	c #8E8D8D",
"/ 	c #959595",
"( 	c #969696",
"_ 	c #989898",
": 	c #9D9D9D",
"< 	c #9F9F9F",
"[ 	c #8E8E8D",
"} 	c #7F7E7D",
"| 	c #7A7775",
"1 	c #817C79",
"2 	c #837E7A",
"3 	c #807C79",
"4 	c #7E7A78",
"5 	c #7E7B78",
"6 	c #817D7A",
"7 	c #918E8C",
"8 	c #645F5B",
"9 	c #554E48",
"0 	c #524A44",
"a 	c #514A44",
"b 	c #524A45",
"c 	c #4E4742",
"d 	c #463F3B",
"e 	c #3E3835",
"f 	c #373331",
"g 	c #363432",
"h 	c #3A3939",
"i 	c #3C3C3C",
"j 	c #3B3B3B",
"k 	c #393939",
"l 	c #353535",
"m 	c #3A3A3A",
"n 	c #383838",
"o 	c #484543",
"p 	c #59524C",
"q 	c #59514A",
"r 	c #4A433F",
"s 	c #545150",
"t 	c #6F6F6E",
"u 	c #7C7C7C",
"v 	c #7E7E7E",
"w 	c #7D7D7D",
"x 	c #828282",
"y 	c #878787",
"z 	c #8A8A8A",
"A 	c #868686",
"B 	c #808080",
"C 	c #7B7B7B",
"D 	c #717070",
"E 	c #5A5756",
"F 	c #4F4946",
"G 	c #585049",
"H 	c #5C534C",
"I 	c #5A514A",
"J 	c #574F49",
"K 	c #564E48",
"L 	c #554C46",
"M 	c #5A524C",
"N 	c #635E5B",
"O 	c #544C46",
"P 	c #514944",
"Q 	c #4B433F",
"R 	c #453E3A",
"S 	c #403A37",
"T 	c #3B3734",
"U 	c #363433",
"V 	c #343433",
"W 	c #363636",
"X 	c #343434",
"Y 	c #333333",
"Z 	c #323232",
"` 	c #363637",
" .	c #373737",
"..	c #45423F",
"+.	c #58504B",
"@.	c #59504A",
"#.	c #4B443F",
"$.	c #4F4C4A",
"%.	c #646363",
"&.	c #707070",
"*.	c #747474",
"=.	c #767676",
"-.	c #777777",
";.	c #7A7A7A",
">.	c #787878",
",.	c #717171",
"'.	c #6E6E6E",
").	c #676666",
"!.	c #575656",
"~.	c #4D4A48",
"{.	c #4C4642",
"].	c #504842",
"^.	c #554C45",
"/.	c #564D46",
"(.	c #514943",
"_.	c #4D453F",
":.	c #7B7876",
"<.	c #564E49",
"[.	c #4F4742",
"}.	c #3D3835",
"|.	c #3A3735",
"1.	c #373636",
"2.	c #313131",
"3.	c #303030",
"4.	c #2F2F2F",
"5.	c #3F3C3A",
"6.	c #4F4944",
"7.	c #57504C",
"8.	c #595552",
"9.	c #5D5B5A",
"0.	c #696969",
"a.	c #6C6C6C",
"b.	c #6B6B6B",
"c.	c #656565",
"d.	c #666666",
"e.	c #6D6D6D",
"f.	c #727272",
"g.	c #6F6F6F",
"h.	c #6A6A6A",
"i.	c #5A5A5A",
"j.	c #525151",
"k.	c #504D4C",
"l.	c #514C49",
"m.	c #534C46",
"n.	c #544C45",
"o.	c #534B44",
"p.	c #4F4741",
"q.	c #554D47",
"r.	c #4F4842",
"s.	c #48413D",
"t.	c #3D3734",
"u.	c #36322F",
"v.	c #343231",
"w.	c #353333",
"x.	c #2E2E2E",
"y.	c #2C2C2C",
"z.	c #313132",
"A.	c #333231",
"B.	c #393633",
"C.	c #504E4C",
"D.	c #6A6969",
"E.	c #727271",
"F.	c #636363",
"G.	c #606060",
"H.	c #5B5B5B",
"I.	c #5D5D5D",
"J.	c #5C5C5C",
"K.	c #575756",
"L.	c #5C5B5B",
"M.	c #5A5856",
"N.	c #4E4A47",
"O.	c #4C453F",
"P.	c #544B45",
"Q.	c #564E47",
"R.	c #7D7977",
"S.	c #625D5A",
"T.	c #49423E",
"U.	c #413C38",
"V.	c #373330",
"W.	c #312E2D",
"X.	c #313030",
"Y.	c #2D2D2D",
"Z.	c #2B2B2B",
"`.	c #272727",
" +	c #4C4C4C",
".+	c #686868",
"++	c #626262",
"@+	c #585858",
"#+	c #595959",
"$+	c #616161",
"%+	c #676767",
"&+	c #616060",
"*+	c #545251",
"=+	c #4D4946",
"-+	c #534B43",
";+	c #5E5A57",
">+	c #433D39",
",+	c #3C3835",
"'+	c #33302F",
")+	c #2F2E2E",
"!+	c #2A2A2A",
"~+	c #252525",
"{+	c #4B4B4B",
"]+	c #737373",
"^+	c #646464",
"/+	c #585655",
"(+	c #4B4744",
"_+	c #4A433C",
":+	c #5B524A",
"<+	c #837E7B",
"[+	c #453F3C",
"}+	c #3E3A37",
"|+	c #383534",
"1+	c #31302F",
"2+	c #4A4A4A",
"3+	c #5E5E5E",
"4+	c #5F5F5F",
"5+	c #605F5F",
"6+	c #4C4743",
"7+	c #575049",
"8+	c #5A5655",
"9+	c #433E3B",
"0+	c #3B3836",
"a+	c #363534",
"b+	c #575553",
"c+	c #504B48",
"d+	c #787674",
"e+	c #575554",
"f+	c #383736",
"g+	c #4D4D4D",
"h+	c #5D5C5C",
"i+	c #4D4A49",
"j+	c #747372",
"k+	c #545353",
"l+	c #3A3938",
"m+	c #363635",
"n+	c #343435",
"o+	c #797979",
"p+	c #575757",
"q+	c #5E5D5D",
"r+	c #4F4E4E",
"s+	c #757575",
"t+	c #525252",
"u+	c #282828",
"v+	c #242424",
"w+	c #232323",
"x+	c #484848",
"y+	c #262626",
"z+	c #414141",
"A+	c #3F3F3F",
"B+	c #424242",
"C+	c #292929",
"D+	c #444444",
"E+	c #404040",
"F+	c #222222",
"G+	c #292928",
"H+	c #2A2828",
"I+	c #414040",
"J+	c #5D5D5C",
"K+	c #2E2D2C",
"L+	c #353230",
"M+	c #3E3A38",
"N+	c #494644",
"O+	c #545352",
"P+	c #5F5E5E",
"Q+	c #32302F",
"R+	c #3A3734",
"S+	c #46403B",
"T+	c #48413C",
"U+	c #494643",
"V+	c #585756",
"W+	c #636262",
"X+	c #3B3735",
"Y+	c #595049",
"Z+	c #504943",
"`+	c #696868",
" @	c #2F3030",
".@	c #2F2E2D",
"+@	c #393533",
"@@	c #48423E",
"#@	c #5C534B",
"$@	c #5C544C",
"%@	c #4F4843",
"&@	c #48413E",
"*@	c #504C4A",
"=@	c #605F5E",
"-@	c #666565",
";@	c #323333",
">@	c #34312F",
",@	c #564D47",
"'@	c #554E47",
")@	c #46403E",
"!@	c #4D4947",
"~@	c #565453",
"{@	c #666767",
"]@	c #3D3D3D",
"^@	c #343333",
"/@	c #3F3A36",
"(@	c #4E4640",
"_@	c #5D544C",
":@	c #5F564E",
"<@	c #4B4440",
"[@	c #443E3A",
"}@	c #4C4845",
"|@	c #5F5F5E",
"1@	c #626161",
"2@	c #5B5C5C",
"3@	c #323231",
"4@	c #353231",
"5@	c #4D4640",
"6@	c #584F48",
"7@	c #5F564F",
"8@	c #5C534D",
"9@	c #5A524B",
"0@	c #4B4540",
"a@	c #4F4D4C",
"b@	c #565555",
"c@	c #5C5A59",
"d@	c #474442",
"e@	c #3E3B39",
"f@	c #373433",
"g@	c #323030",
"h@	c #373432",
"i@	c #3D3834",
"j@	c #47403B",
"k@	c #5B534C",
"l@	c #59514B",
"m@	c #524B45",
"n@	c #514A45",
"o@	c #4E4743",
"p@	c #46403C",
"q@	c #44403D",
"r@	c #494847",
"s@	c #686665",
"t@	c #6F6B68",
"u@	c #6B6763",
"v@	c #615E5B",
"w@	c #615D5B",
"x@	c #524C47",
"y@	c #46413C",
"z@	c #212121",
"A@	c #2A2928",
"B@	c #363231",
"C@	c #403B37",
"D@	c #48423C",
"E@	c #5D554E",
"F@	c #544D47",
"G@	c #504843",
"H@	c #504944",
"I@	c #544C47",
"J@	c #433E3A",
"K@	c #3F3B39",
"L@	c #42403F",
"M@	c #686461",
"N@	c #7A7169",
"O@	c #796E66",
"P@	c #6A615B",
"Q@	c #817E7C",
"R@	c #676361",
"S@	c #4D4743",
"T@	c #474543",
"U@	c #434343",
"V@	c #505050",
"W@	c #494949",
"X@	c #474645",
"Y@	c #433F3D",
"Z@	c #47413C",
"`@	c #524A43",
" #	c #534B45",
".#	c #58504A",
"+#	c #534B46",
"@#	c #4C4540",
"##	c #423C38",
"$#	c #383330",
"%#	c #3E3D3C",
"&#	c #464646",
"*#	c #4F4F4F",
"=#	c #4E4E4E",
"-#	c #515152",
";#	c #786D64",
">#	c #786B61",
",#	c #675D55",
"'#	c #7A7573",
")#	c #706D6C",
"!#	c #413A36",
"~#	c #4E4A48",
"{#	c #5F5E5D",
"]#	c #686767",
"^#	c #534F4E",
"/#	c #5A5149",
"(#	c #5E554D",
"_#	c #5C544D",
":#	c #4A423E",
"<#	c #403936",
"[#	c #37322F",
"}#	c #33302E",
"|#	c #56524F",
"1#	c #665D57",
"2#	c #665C54",
"3#	c #666260",
"4#	c #81807F",
"5#	c #595655",
"6#	c #4F4D4B",
"7#	c #595857",
"8#	c #6C6B6B",
"9#	c #858585",
"0#	c #7F7F7F",
"a#	c #323131",
"b#	c #484644",
"c#	c #555352",
"d#	c #7B7B7A",
"e#	c #6E6D6D",
"f#	c #6B6B6A",
"g#	c #595958",
"h#	c #4F4945",
"i#	c #574F48",
"j#	c #4C4440",
"k#	c #413B38",
"l#	c #3D3836",
"m#	c #3B3A39",
"n#	c #3D3A38",
"o#	c #383532",
"p#	c #322F2D",
"q#	c #4D4C4C",
"r#	c #8B8B8B",
"s#	c #554D48",
"t#	c #353433",
"u#	c #9B9B9B",
"v#	c #848484",
"w#	c #554D46",
"x#	c #929292",
"y#	c #909090",
"z#	c #4E4946",
"A#	c #3F3A38",
"B#	c #939393",
"C#	c #595756",
"D#	c #4A433E",
"E#	c #47403D",
"F#	c #3C3938",
"G#	c #413D3B",
"H#	c #423E3B",
"I#	c #403D3B",
"J#	c #3A3838",
"K#	c #434141",
"L#	c #403F3E",
"M#	c #3D3C3C",
"N#	c #393838",
"O#	c #3E3E3E",
"P#	c #393A3A",
"Q#	c #454545",
"R#	c #8D8D8D",
"S#	c #7C7B7B",
"T#	c #747271",
"U#	c #565553",
"V#	c #4C4C4B",
"W#	c #4B4542",
"X#	c #4C4745",
"Y#	c #2D2C2B",
"Z#	c #52514F",
"`#	c #7C7976",
" $	c #5C5956",
".$	c #7D7A77",
"+$	c #67625D",
"@$	c #7F7B79",
"#$	c #49413C",
"$$	c #666667",
"%$	c #4D4D4E",
"&$	c #474848",
"*$	c #69635E",
"=$	c #5B524B",
"-$	c #635E5A",
";$	c #6F6D6C",
">$	c #6A6764",
",$	c #3D3C3B",
"'$	c #5F554E",
")$	c #605B59",
"!$	c #7C7977",
"~$	c #716D6B",
"{$	c #7B716A",
"]$	c #665D56",
"^$	c #534D49",
"/$	c #413F3D",
"($	c #5E554E",
"_$	c #4A423C",
":$	c #4E4741",
"<$	c #49423D",
"[$	c #3F3834",
"}$	c #342F2B",
"|$	c #686360",
"1$	c #766B63",
"2$	c #75695F",
"3$	c #645951",
"4$	c #3D3A37",
"5$	c #2C2C2B",
"6$	c #302F2E",
"7$	c #363331",
"8$	c #3C3733",
"9$	c #463F3A",
"0$	c #565351",
"a$	c #5F5751",
"b$	c #5D534C",
"c$	c #32302E",
"d$	c #8E8C8A",
"e$	c #7C7876",
"f$	c #777573",
"g$	c #747170",
"h$	c #716F6F",
"i$	c #706F6E",
"j$	c #706F6F",
"k$	c #787776",
"l$	c #797775",
"m$	c #716E6D",
"n$	c #5F5C5B",
"o$	c #504F4E",
"p$	c #4C4B4B",
"q$	c #52504F",
"r$	c #595553",
"s$	c #5E5A56",
"t$	c #605B57",
"u$	c #67625E",
"v$	c #68625E",
"w$	c #66605D",
"  . + @ . # $ % & * = - - ; > > ; , - , , , , , ' ' , , , ) ! ~ { ] ^ / ( / / / / / / _ : < < < < : _ ( / [ } | 1 2 3 4 4 5 6 7 ",
"8 9 0 a b c d e f g h i j k l l k j j j j j i m n n j i i o p q r s t u v v w w v v v x y z z z z A B u C D E F G H I J K L M 3 ",
"N K O P Q R S T U V W W X Y Y Y Y Y Y Y Y X W l Z Z l `  ...+.@.#.$.%.&.*.*.&.&.*.=.=.-.;.C C C C >.,.'.'.).!.~.{.].^./.(._.(.:.",
"8 <.O [.R }.T |.1.W W X 2.3.Y Y 3.4.4.4.4.2.X l Y Z X X l 5.6.7.8.9.%.0.a.b.c.d.e.&.&.&.&.,.f.f.,.g.a.b.h.c.i.j.k.l.m.n.o.p.P :.",
"8 q.r.s.t.u.v.w.l W W X 4.x.3.3.x.y.y.y.y.4.X W l X Z z.Z A.B.C.D.E.b.d.F.G.H.I.d.h.h.h.h.a.&.&.a.b.'.&.&.0.J.K.L.M.N.O.P.^.Q.R.",
"S.P T.U.V.W.X.Z X l W X 3.4.3.4.Y.y.Z.Z.Z.x.Z X X Y Z 2.3.Z.`. +f.u f..+++I.@+#+$+c.d.%+%+h.&.g..+%+b.'.g.h.G.I.F.&+*+=+a -+q 3 ",
";+r >+,+'+)+Z X Z Y l l X Z 2.3.4.x.y.Z.Z.Y.3.2.4.3.Y Y 2.!+~+{+]+v =.e.%+$+J.H.I.$+c.%+%+h.&.'.c.G.++c.0..+c.^+d.c.&+/+(+_+:+<+",
"$ [+}+|+1+4.Z Y 3.3.Z Y Y Z 3.x.x.Y.Y.y.Z.y.4.x.y.Y.2.Y 2.!+~+2+f.v =.e.%+^+F.$+3+4+^+%+%+h.&.'.c.G.$+^+d.d.c.d.0.h..+5+* 6+7+3 ",
"8+9+0+a+2.3.2.3.x.Y.x.x.x.x.Y.y.!+Z.Y.x.y.y.4.x.!+!+Y.4.3.!+~+{+f.u f.%+++F.h.0.$+4+^+%+%+h.&.g..+%+b.a.0.c.$+^+a.'.h.c.5+b+c+d+",
"e+5.f+l Z 3.3.4.Y.y.Z.y.Y.x.x.Y.Z.Z.x.3.4.4.3.4.Y.Z.Z.Y.4.!+~+g+=.B ]+%+G.F.e.'.c.++%+h.h.a.g.'.h.h.&.&.h.F.I.4+%+b.0.%+%+h+i+j+",
"k+l+m+n+Z 3.3.3.4.x.y.Y.2.Y Y Z 4.x.4.2.Y Y 2.2.Z 2.Y.y.4.!+~+> u y o+b.$+F.'.g.0.%+e.&.&.g.a.0..+b.&.&.h.F.i.p+H.G.c.%+%+q+r+s+",
"t+ .X Y 2.3.3.3.3.4.4.3.Y X X Z 3.4.4.3.Y Y 2.2.Z Z x.Y.Y.u+v+> u A >.0.G.F.e.&.b.h.&.]+,.'.0.%+%+0.a.e.b.d.3+p+; @+G.d.0.$+> =.",
"t+W Z 2.3.3.3.3.3.2.Y Y Z 2.4.x.Y.y.y.x.3.2.2.3.4.x.4.x.Z.~+w+g+=.v '.$+I.F.'.&.b.h.&.,.e.h..+%+%+d.^+d.e.e.d.3+p+- J.^+a.c.; =.",
"' n Z Z Z 2.3.3.3.Z l l Y 2.4.Y.Z.Z.Y.4.3.3.4.x.y.y.Y.Y.y.`.w+x+e.s+d.I.$+%+g.&.h.0.a.b.c.F.d.%+%+^+4+$+0.e.b.d.3+i.I.^+a.d.p+>.",
", j l l X Y 2.3.3.Z l W l X X 2.Z.Z.2.Y 2.4.Y.y.Z.!+!+y.3.Y.y+z+++b.++$+0.g.f.&.h.d.^+G.H.I.F.%+%+^+4+I.$+%+e.e.d.F.^+d.0.F.i.u ",
", j l Y Y Y Z 2.3.Z X l Y Y Z 3.!+Z.2.Y 2.4.y.Z.Z.!+!+Y.Y 3.`.A+4+0.F.c.'.f.,.'.0.^+4+i.p+i.F.%+%+^+4+J.3+^+a.g.a.h.h.h.h.^+J.v ",
", m 2.x.x.3.Y Y 2.Z X Y 4.y.Z.!+u+!+4.2.2.4.y.Z.Z.y.Y.3.X 3.`.B+^+'.0.0.g.,.e.h..+^+4+H.i.I.^+%+%+^+4+3+++d.0.a.g.&.&.&.&.0.3+v ",
"- i Z x.x.3.X l Y Y l Y Y.C+C+!+!+Z.Y.4.3.3.4.Y.y.Y.3.Z Z Y.y+D+%+f.'.e.,.&.b.%+%+c.$+G.++^+d.%+%+c.$+++.+0..+0.'.,.f.]+]+b.4+v ",
"@+E+ .Y Y X l W l l W X 3.x.x.x.x.Y.Y.Y.4.2.Y 2.Y.x.Z Z x.`.w+D+%+*.f.,.f.&.h.%+%+d.c.%+b.a.0.%+%+d.c..+e.'.0..+0.e.,.]+]+b.4+v ",
"#+z+n l X X X l W W l X Z 2.3.4.4.x.y.y.4.2.Y 2.Y.x.Z Z y.v+F+D+%+]+&.'.g.e.d.^+.+0.d.%+e.'.h..+h.h..+h.'.'.h.%+%+0.'.,.f.b.4+v ",
"#+z+W Z Z Z Z Y l l Y Y X Y 4.y.y.y.Z.y.4.3.4.Y.y.Y.3.3.y.y+w+D+%+,.0.c..+d.3+G.h.a.^+++.+h..+h.'.'.h..+0.h..+%+%+.+0.e.,.b.4+v ",
"#+E+l 3.3.3.2.Y X Y 3.3.Y Z x.y.Y.x.Y.Y.4.4.y.Z.Z.y.4.4.y.G+H+I+J+).++++c.++i.I.h.e.%+F.^+^+^+%+b.a.0.%+%+%+%+.+h.h.h.e.,.b.4+v ",
"#+E+l 3.3.2.Y X Z 3.x.x.3.3.Y.Y.2.Z 3.4.3.4.y.Z.Z.y.4.4.y.K+L+M+N+O+P+c.d.F.I.3+d.b.e.h.F.4+4+G.++^+d.%+%+%+%+0.'.&.&.,.f.b.4+v ",
"@+A+X x.x.4.Z Y 2.4.Y.Y.x.x.y.x.Z Y 2.3.3.4.y.Z.y.Y.x.4.Q+R+S+T+>+U+V+W+.+%+G.4+^+h.&.'.c.4+4+4+4+$+c.%+%+%+%+0.'.,.f.]+]+b.4+v ",
"- i 2.y.!+Z.Y.4.3.3.4.x.Y.y.Z.Y.3.2.2.3.3.4.y.y.x.x.Y.Q+X+T.K Y+Z+{.N.E `+b.++4+^+h.&.&..+^+^+^+^+c.d.%+%+%+%+.+h.e.,.]+]+b.4+v ",
", m 2.x.y.y.y.Y.4.3.3.4.y.Z.y.Y.4.3.4.x.x.x.x.4. @4..@+@@@O #@$@K %@&@*@=@-@++$+c.b.&.,.e.h.h.h..+%+%+%+%+.+0.0..+0.a.'.g.0.3+v ",
", j l Y Y 2.3.4.3.3.3.4.y.y.x.4.3.4.Y.y.!+y.2.;@2.1+>@>+,@H G '@9 P s.)@!@~@5+c.{@h.&.f.,.&.&.'.h.%+%+%+%+h.'.'.0.d.^+c..+^+I.v ",
"- ]@l Y X X 2.3.3.3.3.4.x.Y.x.4.4.x.Y.y.!+Y.Z ^@A.g /@(@_@:@K m.J q.<@R [@}@V+|@1@d.e.&.&.&.'.a.0..+h.h.b.e.,.&.b.c.$+$+c.$+2@v ",
"@+A+Y 4.2.2.2.3.3.3.3.3.4.x.Y.y.y.Y.x.x.x.4.2.3@4@/@5@6@:@7@@.J 8@9@P <@0@{.}@a@b@3+d.h.b..+c.^+d.0.'.&.&.,.f.&.h.d.c.c.d.$+H.v ",
"c@d@e@f@.@Z.Z.Z.Z.!+!+!+C+u+y+~+~+`.C+!+!+y.g@h@i@j@0 9@7@7@9@@.k@l@m@%@n@o@p@q@r@j.H.$+F.$+J.H.$+d.h.a.b.b.b.0.c.F.F.s@t@u@v@} ",
"w@x@%@y@'+~+v+y+`.`.y+v+F+z@z@z@z@F+v+v+v+A@B@C@D@(@(.K E@7@9@K F@m@G@H@I@b r J@K@L@{+' #+#+; ; #+I.4+3+H.i.#+i.H.H.J.M@N@O@P@Q@",
"R@Z+p.S@T@U@D+x+V@t+g+2+W@W@2+2+2+2+2+{+2+X@Y@Z@`@/. #F@k@E@k@.#+#Z+c P q.O @###$#g %#&#g+*#g+=#> ' ' > =#{+{+ +V@-#' S.;#>#,#'#",
")#[@!#~#{#%+%+'.;.u =.f.f.f.f.f.f.f.f.f.f.]#^#@#/#(#G K .#k@E@_#J +#G@P q.+#:#<#[#}#a+m A+U@&#x+W@2+2+W@x+&#U@U@D+&#W@|#1#2#.#3#",
"4#5#6#7#8#*.]+>.x 9#0#u u u u C ;.;.C u u D E F G H I J K J M k@@.9 m@a b c d e f '+a#Y W m ]@E+E+z+z+z+z+A+i j i ]@E+b#x@H@p@c#",
"/ d#e#f#D f.'.'.f.]+,.&.g.&.&.'.h.h.'.&.&..+g#6#h#b i#6@+#a +#q.K J 9 b j#d k#l#|+^@2.Z l l X X l  .k k  .W X l  .n m m#n#o#p#q#",
"< z C f.g.e.b.h.h.h.h.h..+d.F.G.I.3+++d.0.c.i.j.k.l.m.n.o.a P m@9 <.q.[.R }.T |.1.l Z 2.Y Y 4.Y.Y.3.X l Y Z Z Y l W l Y 4.`.v+W@",
"< r#C g.%+d.a.&.&.&.&.'.0.F.J.#+H.J.3+^+a.0.J.K.L.M.N.O.P.i#Q.s#K q.G@s.t.u.v.t#l l Z 3.2.2.4.Y.Z.Y.Y l l X X l W l Y 2.4.C+y+2+",
"u#v#-.b.$+++b.,.f.]+]+g.%+4+#+#+4+F.F.%+e.h.G.I.F.&+*+=+a w#q q K P r U.V.W.X.Y X Y 3.4.4.3.2.4.Z.y.2.X l X X l l X Z Z Z Y.u+2+",
"x#o+'.%+G.G.%+e.,.]+]+e.G.#+#+4+0.'.'.e.b..+^+^+d.c.&+/+(+5@:+_@+#r [@,+'+)+Z X Z 3.x.y.y.4.Y Z Y.y.3.Z Z Z Z Z Z Z X l l 4.C+2+",
"y#*.0.F.G.$+c.h.&.]+]+a.3+p+i.++b.g.'.a.0.d.c.d.0.h..+5+* z#7+6@c [+A#|+1+4.Z Y 3.x.Y.y.Z.Y.2.Z 3.4.2.Z Z 2.3.3.3.2.Y l W 3.!+2+",
"B#-.%+G.F.c.d.h.&.]+]+e.$+i.H.G.%+0.c.^+d.c.$+^+a.'.h.c.5+C#c+D#E#9+F#a+2.3.2.3.x.Y.x.x.y.y.Y.3.Z X X X X Y 2.3.3.3.2.Y l 3.!+2+",
"/ ;..+$+c..+h.e.,.f.,.a.^+4+4+$+c.^+I.I.F.F.I.4+%+b.0.%+%+P+i+G#H#I#J#l Y Z Z 3.Y.y.4.4.4.x.Y.x.Z Y Y X l X Z 3.2.Z Z Y l 3.!+2+",
"/ C a.c.d.0.'.,.f.,.e.0.d.^+^+c.d.++i.i.F.F.H.p+H.G.c.%+%+5+r+K#L#M#N#W l l X Z x.y.4.2.Y Z 3.4.x.x.x.3.X l Z 2.Y X l l W 3.!+2+",
"_ 0#g.%+%+0.a.'.g.'.h..+0.0.d.c.d.F.I.3+d.d.3+p+; @+G.d.0.++> U@O#m  .W l X X Z x.x.3.Y l l Z 3.4.x.Y.4.X l Y Y l W W W W 3.C+2+",
": 9#f.%+%+d.^+c..+0..+h.'.a.^+$+c.d.^+d.e.e.d.3+p+- J.^+a.%+; B+P#W W l Y 2.4.x.4.3.Y l W l Z 2.Z Z 3.2.X W l l W W W W W 3.C+2+",
": v#g.c..+.+c.F.^+^+^+0.g.e.F.4+^+.+h.a.g.e.%+$+J.i.I.c.'.h.- U@n Y l X 2.x.y.y.4.2.Z Y Y Z 2.Z l l Z 2.Y X X X X X X l W 3.!+2+",
"_ u d.G.h.g.'.h.F.4+4+c.'.'.F.4+^+h.'.g.a..+++G.$+F.^+0.g.b.@+&#k Y l X 4.y.Z.y.4.4.Y.y.Y.4.3.Z l l Z 3.2.Z Z Z Z Z Z Y l 3.!+2+",
"/ >.$+H.0.&.&.b.++H.J.F.'.g.%+c..+e.,.&.h.d.^+++++F.d.0.a.%+@+x+i l X Y 3.x.Y.Y.4.x.Z.!+y.Y.x.3.Y Y 2.3.2.Z Z 2.3.3.2.Y l 3.!+2+",
"/ >.$+i.^+b.b.%+G.J.J.F.'.f.g.'.g.,.f.&.h.0.a..+4+I.F.d.^+3+; 2+E+k X Z Y Z 3.4.3.4.x.x.x.x.Y.x.3.2.3.2.Y X X Y 2.2.Y l W 3.!+2+",
"( o+c.3+d.h..+d.^+++G.^+a.,.f.f.,.&.&.e.%+0.g.e.$+I.F.^+4+#+; g+Q#]@W Z X Y 2.3.2.Z Z Z Z 2.4.4.4.3.3.Z l W W X 2.3.Y l W 3.!+2+",
"/ C b.d.a.'.0.0.a.b.%+d.0.e.,.,.e.h.h.%+++c.'.g.%+F.d.^+4+i.p+> x+E+k X Z 2.3.2.Y l l l l X X Z 2.3.3.Z l W W X 4.x.3.Y l 3.!+2+",
"R#D D.h.'.e..+.+e.g.a.0..+h.'.g.a.0..+c.$+c.'.&.b.d.c.++3+H.@+' 2+z+k X Z 2.3.2.Y l W W W W W X Z 3.2.Z X X X 2.Y.y.4.2.Y x.u+2+",
"S#7#&+.+h.%+++++.+a.g.'.0..+0.a.g.'.0.d.c..+g.&.b.c.$+3+I.H.@+' 2+z+ .Z X Y 2.3.2.Y l W W W W l Z 2.Y X Z 2.4.Y.y.y.4.3.4.C+~+W@",
"T#U+U#W+.+%+G.4+^+h.&.&.h.%+%+h.&.,.e.0..+h.&.g..+++3+I.3+J.- *#x+A+l 2.X X 2.4.4.3.Z X X l W l Y Y l l Z 4.y.Z.Z.y.4.4.y.u+H+V#",
"d+W#X#E `+b.++4+^+h.&.&.h.%+%+h.&.f.,.'.0.b.&.'.c.3+J.3+++4+' x+U@j Z 4.Y X 4.y.y.Y.x.4.2.Y l W l l W l Z 4.y.Z.Z.y.4.4.y.Y#L+Z#",
"`#%@d *@=@-@++$+c.b.&.g..+d.0.a.g.,.f.,.e.e.,.g.%+++G.G.F.3+> &#B+j Z 4.Z Y 3.x.Y.Y.x.4.3.Z l W W W W l Z 4.y.Z.y.Y.x.4.Q++@S+ $",
".$P R )@!@~@5+c.{@h.&.'.c.^+a.'.a.e.,.f.,.,.f.f.g.b.%+F.G.H.> 2+Q#A+l 4.2.Z Y Z 3.3.Z Z 2.Z X W W W W l Z 4.y.y.x.x.Y.Q+X+s.K +$",
"@$q.#$R [@}@V+|@1@$$e.a.^+^+a.'.h.h.&.]+]+]+]+]+]+,.e.0.c.3+, %$&$E+ .2.3.Z X l Y Y l X Z Z X W W W W X 3.x.x.4. @4..@+@@@ ##@*$",
"6 9@p.<@0@{.}@a@b@3+d.0.d.d.0.0..+h.&.]+]+]+]+]+]+f.,.&.'..+J.> W@z+k Y 2.Z l W l l W l Z Z X W W W W Y Y.y.2.;@2.1+>@>+,@=$G -$",
"3 l@].%@n@o@p@q@r@j.H.++d.%+%+%+%+h.&.]+]+f.,.,.f.]+]+]+,.;$>$S.|#N+,$l z.Z l W W W W l Y Y l W W W W Y Y.Y.Z ^@A.g /@(@_@'$K )$",
"!$m@5@H@I@b r J@K@L@{+p+++%+%+%+%+h.&.]+]+,.e.e.,.]+]+,.e.~${$;#]$^$/$X 2.Z X W W W W W l l W W W W W X 3.4.2.3@4@/@5@6@:@($@.. ",
"| 5@_$:$o.(.<$[$}$p#h W@@+G.$+$+$+^+%+0.0.d.$+$+.+h.0.c.G.|$1$2$3$H@4$4.y.Y.4.3.3.3.3.3.3.3.3.4.4.3.3.4.y.5$6$7$8$9$`@I ($($q N ",
"R.+#(@P q.+#:#<#[#}#a+z+*#p+i.J.J.H.i.i.#+p+' ; J.I.@+' > 0$a$b$[.C@c$C+u+u+C+C+!+C+C+!+!+C+u+`.`.u+C+u+~+A@B@C@D@(@(.K E@($9@8 ",
"d$R.| :.R.e$f$g$h$i$j$f.-.C w v v w C ;.;.o+-.>.u u >.=.=.k$l$m$n$o$p$2+2+2+2+2+2+2+2+2+2+2+W@W@W@2+2+2+W@p$q$r$s$t$+ S.u$v$w$  "};
