/* XPM */
static char * treso_xpm[] = {
"64 64 450 2",
"  	c #73706E",
". 	c #625E5A",
"+ 	c #5F5B58",
"@ 	c #605C59",
"# 	c #615C59",
"$ 	c #5B5755",
"% 	c #565251",
"& 	c #52504E",
"* 	c #51504F",
"= 	c #545453",
"- 	c #565656",
"; 	c #545454",
"> 	c #515151",
", 	c #555555",
"' 	c #535353",
") 	c #5B5958",
"! 	c #65615D",
"~ 	c #6C6864",
"{ 	c #716F6D",
"] 	c #7D7C7C",
"^ 	c #8E8D8D",
"/ 	c #959595",
"( 	c #969696",
"_ 	c #989898",
": 	c #9D9D9D",
"< 	c #9F9F9F",
"[ 	c #8E8E8D",
"} 	c #7F7E7D",
"| 	c #7A7775",
"1 	c #817C79",
"2 	c #837E7A",
"3 	c #807C79",
"4 	c #7E7A78",
"5 	c #7E7B78",
"6 	c #817D7A",
"7 	c #918E8C",
"8 	c #645F5B",
"9 	c #554E48",
"0 	c #524A44",
"a 	c #514A44",
"b 	c #524A45",
"c 	c #4E4742",
"d 	c #463F3B",
"e 	c #3E3835",
"f 	c #373331",
"g 	c #363432",
"h 	c #3A3939",
"i 	c #3C3C3C",
"j 	c #3B3B3B",
"k 	c #393939",
"l 	c #353535",
"m 	c #3A3A3A",
"n 	c #383838",
"o 	c #484543",
"p 	c #59524C",
"q 	c #59514A",
"r 	c #4A433F",
"s 	c #545150",
"t 	c #6F6F6E",
"u 	c #7C7C7C",
"v 	c #7E7E7E",
"w 	c #7D7D7D",
"x 	c #828282",
"y 	c #878787",
"z 	c #8A8A8A",
"A 	c #868686",
"B 	c #808080",
"C 	c #7B7B7B",
"D 	c #717070",
"E 	c #5A5756",
"F 	c #4F4946",
"G 	c #585049",
"H 	c #5C534C",
"I 	c #5A514A",
"J 	c #574F49",
"K 	c #564E48",
"L 	c #554C46",
"M 	c #5A524C",
"N 	c #635E5B",
"O 	c #544C46",
"P 	c #514944",
"Q 	c #4B433F",
"R 	c #453E3A",
"S 	c #403A37",
"T 	c #3B3734",
"U 	c #363433",
"V 	c #343433",
"W 	c #363636",
"X 	c #343434",
"Y 	c #333333",
"Z 	c #323232",
"` 	c #363637",
" .	c #373737",
"..	c #45423F",
"+.	c #58504B",
"@.	c #59504A",
"#.	c #4B443F",
"$.	c #4F4C4A",
"%.	c #646363",
"&.	c #707070",
"*.	c #747474",
"=.	c #767676",
"-.	c #777777",
";.	c #7A7A7A",
">.	c #787878",
",.	c #717171",
"'.	c #6E6E6E",
").	c #676666",
"!.	c #575656",
"~.	c #4D4A48",
"{.	c #4C4642",
"].	c #504842",
"^.	c #554C45",
"/.	c #564D46",
"(.	c #514943",
"_.	c #4D453F",
":.	c #7B7876",
"<.	c #564E49",
"[.	c #4F4742",
"}.	c #3D3835",
"|.	c #3A3735",
"1.	c #373636",
"2.	c #313131",
"3.	c #303030",
"4.	c #2F2F2F",
"5.	c #3F3C3A",
"6.	c #4F4944",
"7.	c #57504C",
"8.	c #595552",
"9.	c #5D5B5A",
"0.	c #696969",
"a.	c #6C6C6C",
"b.	c #6B6B6B",
"c.	c #656565",
"d.	c #666666",
"e.	c #6D6D6D",
"f.	c #727272",
"g.	c #6F6F6F",
"h.	c #6A6A6A",
"i.	c #5A5A5A",
"j.	c #525151",
"k.	c #504D4C",
"l.	c #514C49",
"m.	c #534C46",
"n.	c #544C45",
"o.	c #534B44",
"p.	c #4F4741",
"q.	c #554D47",
"r.	c #4F4842",
"s.	c #48413D",
"t.	c #3D3734",
"u.	c #36322F",
"v.	c #343231",
"w.	c #353333",
"x.	c #2E2E2E",
"y.	c #2C2C2C",
"z.	c #313132",
"A.	c #333231",
"B.	c #393633",
"C.	c #504E4C",
"D.	c #6A6969",
"E.	c #727271",
"F.	c #636363",
"G.	c #606060",
"H.	c #5B5B5B",
"I.	c #5D5D5D",
"J.	c #5C5C5C",
"K.	c #575756",
"L.	c #5C5B5B",
"M.	c #5A5856",
"N.	c #4E4A47",
"O.	c #4C453F",
"P.	c #544B45",
"Q.	c #564E47",
"R.	c #7D7977",
"S.	c #625D5A",
"T.	c #49423E",
"U.	c #413C38",
"V.	c #373330",
"W.	c #312E2D",
"X.	c #313030",
"Y.	c #2D2D2D",
"Z.	c #2B2B2B",
"`.	c #272727",
" +	c #4C4C4C",
".+	c #686868",
"++	c #626262",
"@+	c #585858",
"#+	c #595959",
"$+	c #616161",
"%+	c #676767",
"&+	c #616060",
"*+	c #545251",
"=+	c #4D4946",
"-+	c #534B43",
";+	c #5E5A57",
">+	c #433D39",
",+	c #3C3835",
"'+	c #33302F",
")+	c #2F2E2E",
"!+	c #140C1C",
"~+	c #2A2A2A",
"{+	c #252525",
"]+	c #4B4B4B",
"^+	c #737373",
"/+	c #646464",
"(+	c #585655",
"_+	c #4B4744",
":+	c #4A433C",
"<+	c #5B524A",
"[+	c #837E7B",
"}+	c #453F3C",
"|+	c #3E3A37",
"1+	c #383534",
"2+	c #31302F",
"3+	c #4A4A4A",
"4+	c #5E5E5E",
"5+	c #5F5F5F",
"6+	c #605F5F",
"7+	c #4C4743",
"8+	c #575049",
"9+	c #5A5655",
"0+	c #433E3B",
"a+	c #3B3836",
"b+	c #363534",
"c+	c #DEEED6",
"d+	c #D27D2C",
"e+	c #854C30",
"f+	c #575553",
"g+	c #504B48",
"h+	c #787674",
"i+	c #575554",
"j+	c #383736",
"k+	c #5D5C5C",
"l+	c #4D4A49",
"m+	c #747372",
"n+	c #545353",
"o+	c #3A3938",
"p+	c #363635",
"q+	c #343435",
"r+	c #DAD45E",
"s+	c #575757",
"t+	c #5E5D5D",
"u+	c #4F4E4E",
"v+	c #757575",
"w+	c #525252",
"x+	c #292929",
"y+	c #404040",
"z+	c #414141",
"A+	c #3F3F3F",
"B+	c #3D3D3D",
"C+	c #5B5C5C",
"D+	c #5C5A59",
"E+	c #474442",
"F+	c #3E3B39",
"G+	c #373433",
"H+	c #2F2E2D",
"I+	c #282828",
"J+	c #686665",
"K+	c #6F6B68",
"L+	c #6B6763",
"M+	c #615E5B",
"N+	c #615D5B",
"O+	c #524C47",
"P+	c #4F4843",
"Q+	c #46413C",
"R+	c #242424",
"S+	c #262626",
"T+	c #222222",
"U+	c #212121",
"V+	c #686461",
"W+	c #7A7169",
"X+	c #796E66",
"Y+	c #6A615B",
"Z+	c #817E7C",
"`+	c #676361",
" @	c #504943",
".@	c #4D4743",
"+@	c #474543",
"@@	c #434343",
"#@	c #444444",
"$@	c #484848",
"%@	c #505050",
"&@	c #515152",
"*@	c #786D64",
"=@	c #786B61",
"-@	c #675D55",
";@	c #7A7573",
">@	c #706D6C",
",@	c #443E3A",
"'@	c #413A36",
")@	c #4E4A48",
"!@	c #5F5E5D",
"~@	c #464646",
"{@	c #494949",
"]@	c #56524F",
"^@	c #665D57",
"/@	c #665C54",
"(@	c #58504A",
"_@	c #666260",
":@	c #81807F",
"<@	c #595655",
"[@	c #4F4D4B",
"}@	c #595857",
"|@	c #6C6B6B",
"1@	c #484644",
"2@	c #504944",
"3@	c #46403C",
"4@	c #555352",
"5@	c #7B7B7A",
"6@	c #6E6D6D",
"7@	c #6B6B6A",
"8@	c #3B3A39",
"9@	c #3D3A38",
"0@	c #383532",
"a@	c #322F2D",
"b@	c #4D4C4C",
"c@	c #8B8B8B",
"d@	c #9B9B9B",
"e@	c #848484",
"f@	c #929292",
"g@	c #797979",
"h@	c #909090",
"i@	c #939393",
"j@	c #7F7F7F",
"k@	c #858585",
"l@	c #8D8D8D",
"m@	c #7C7B7B",
"n@	c #747271",
"o@	c #494643",
"p@	c #565553",
"q@	c #636262",
"r@	c #2A2828",
"s@	c #4C4C4B",
"t@	c #4B4542",
"u@	c #4C4745",
"v@	c #696868",
"w@	c #2D2C2B",
"x@	c #353230",
"y@	c #52514F",
"z@	c #7C7976",
"A@	c #504C4A",
"B@	c #605F5E",
"C@	c #666565",
"D@	c #32302F",
"E@	c #393533",
"F@	c #46403B",
"G@	c #5C5956",
"H@	c #7D7A77",
"I@	c #46403E",
"J@	c #4D4947",
"K@	c #565453",
"L@	c #666767",
"M@	c #3B3735",
"N@	c #67625D",
"O@	c #7F7B79",
"P@	c #49413C",
"Q@	c #4C4845",
"R@	c #585756",
"S@	c #5F5F5E",
"T@	c #626161",
"U@	c #666667",
"V@	c #2F3030",
"W@	c #48423E",
"X@	c #534B45",
"Y@	c #5C534B",
"Z@	c #69635E",
"`@	c #5A524B",
" #	c #4B4440",
".#	c #4B4540",
"+#	c #4F4D4C",
"@#	c #565555",
"##	c #323333",
"$#	c #34312F",
"%#	c #564D47",
"&#	c #5B524B",
"*#	c #635E5A",
"=#	c #59514B",
"-#	c #514A45",
";#	c #4E4743",
">#	c #44403D",
",#	c #494847",
"'#	c #343333",
")#	c #3F3A36",
"!#	c #4E4640",
"~#	c #5D544C",
"{#	c #5F554E",
"]#	c #605B59",
"^#	c #7C7977",
"/#	c #524B45",
"(#	c #4D4640",
"_#	c #544C47",
":#	c #433E3A",
"<#	c #3F3B39",
"[#	c #42403F",
"}#	c #716D6B",
"|#	c #7B716A",
"1#	c #323231",
"2#	c #353231",
"3#	c #584F48",
"4#	c #5F564E",
"5#	c #5E554E",
"6#	c #4A423C",
"7#	c #4E4741",
"8#	c #49423D",
"9#	c #3F3834",
"0#	c #342F2B",
"a#	c #686360",
"b#	c #766B63",
"c#	c #2C2C2B",
"d#	c #302F2E",
"e#	c #363331",
"f#	c #3C3733",
"g#	c #463F3A",
"h#	c #524A43",
"i#	c #534B46",
"j#	c #4A423E",
"k#	c #403936",
"l#	c #37322F",
"m#	c #33302E",
"n#	c #4F4F4F",
"o#	c #565351",
"p#	c #5F5751",
"q#	c #5D534C",
"r#	c #403B37",
"s#	c #32302E",
"t#	c #2A2928",
"u#	c #363231",
"v#	c #48423C",
"w#	c #5D554E",
"x#	c #8E8C8A",
"y#	c #7C7876",
"z#	c #777573",
"A#	c #747170",
"B#	c #716F6F",
"C#	c #706F6E",
"D#	c #706F6F",
"E#	c #787776",
"F#	c #797775",
"G#	c #716E6D",
"H#	c #5F5C5B",
"I#	c #504F4E",
"J#	c #4C4B4B",
"K#	c #52504F",
"L#	c #595553",
"M#	c #5E5A56",
"N#	c #605B57",
"O#	c #67625E",
"P#	c #68625E",
"Q#	c #66605D",
"  . + @ . # $ % & * = - - ; > > ; , - , , , , , ' ' , , , ) ! ~ { ] ^ / ( / / / / / / _ : < < < < : _ ( / [ } | 1 2 3 4 4 5 6 7 ",
"8 9 0 a b c d e f g h i j k l l k j j j j j i m n n j i i o p q r s t u v v w w v v v x y z z z z A B u C D E F G H I J K L M 3 ",
"N K O P Q R S T U V W W X Y Y Y Y Y Y Y Y X W l Z Z l `  ...+.@.#.$.%.&.*.*.&.&.*.=.=.-.;.C C C C >.,.'.'.).!.~.{.].^./.(._.(.:.",
"8 <.O [.R }.T |.1.W W X 2.3.Y Y 3.4.4.4.4.2.X l Y Z X X l 5.6.7.8.9.%.0.a.b.c.d.e.&.&.&.&.,.f.f.,.g.a.b.h.c.i.j.k.l.m.n.o.p.P :.",
"8 q.r.s.t.u.v.w.l W W X 4.x.3.3.x.y.y.y.y.4.X W l X Z z.Z A.B.C.D.E.b.d.F.G.H.I.d.h.h.h.h.a.&.&.a.b.'.&.&.0.J.K.L.M.N.O.P.^.Q.R.",
"S.P T.U.V.W.X.Z X l W X 3.4.3.4.Y.y.Z.Z.Z.x.Z X X Y Z 2.3.Z.`. +f.u f..+++I.@+#+$+c.d.%+%+h.&.g..+%+b.'.g.h.G.I.F.&+*+=+a -+q 3 ",
";+r >+,+'+)+Z X Z Y l l X Z 2.3.4.x.y.Z.Z.!+!+!+!+!+!+!+!+~+{+]+^+v =.e.%+$+J.H.I.$+c.%+%+h.&.'.c.G.++c.0..+c./+d.c.&+(+_+:+<+[+",
"$ }+|+1+2+4.Z Y 3.3.Z Y Y Z 3.x.x.Y.Y.y.Z.!+!+!+!+!+!+!+!+~+{+3+f.v =.e.%+/+F.$+4+5+/+%+%+h.&.'.c.G.$+/+d.d.c.d.0.h..+6+* 7+8+3 ",
"9+0+a+b+2.3.2.3.x.Y.x.x.x.x.Y.y.!+!+!+!+!+c+c+d+d+d+d+e+e+!+!+!+!+u f.%+++F.h.0.$+5+/+%+%+h.&.g..+%+b.a.0.c.$+/+a.'.h.c.6+f+g+h+",
"i+5.j+l Z 3.3.4.Y.y.Z.y.Y.x.x.Y.!+!+!+!+!+c+c+d+d+d+d+e+e+!+!+!+!+B ^+%+G.F.e.'.c.++%+h.h.a.g.'.h.h.&.&.h.F.I.5+%+b.0.%+%+k+l+m+",
"n+o+p+q+Z 3.3.3.4.x.y.Y.2.Y !+!+!+!+!+e+e+c+c+r+r+d+d+d+d+d+d+e+e+!+!+!+!+F.'.g.0.%+e.&.&.g.a.0..+b.&.&.h.F.i.s+H.G.c.%+%+t+u+v+",
"w+ .X Y 2.3.3.3.3.4.4.3.Y X !+!+!+!+!+e+e+c+c+r+r+d+d+d+d+d+d+e+e+!+!+!+!+F.e.&.b.h.&.^+,.'.0.%+%+0.a.e.b.d.4+s+; @+G.d.0.$+> =.",
"w+W Z 2.3.3.3.3.3.2.Y Y Z 2.4.x.!+!+!+d+d+!+!+!+!+r+r+r+r+d+d+c+c+d+d+e+e+!+!+!+!+h.&.,.e.h..+%+%+d./+d.e.e.d.4+s+- J./+a.c.; =.",
"' n Z Z Z 2.3.3.3.Z l l Y 2.4.Y.!+!+!+d+d+!+!+!+!+r+r+r+r+d+d+c+c+d+d+e+e+!+!+!+!+0.a.b.c.F.d.%+%+/+5+$+0.e.b.d.4+i.I./+a.d.s+>.",
", j l l X Y 2.3.3.Z l W l X X 2.!+!+!+d+d+e+e+e+e+!+!+!+!+r+r+r+r+r+r+r+r+d+d+e+e+!+!+!+!+I.F.%+%+/+5+I.$+%+e.e.d.F./+d.0.F.i.u ",
", j l Y Y Y Z 2.3.Z X l Y Y Z 3.!+!+!+d+d+e+e+e+e+!+!+!+!+r+r+r+r+r+r+r+r+d+d+e+e+!+!+!+!+i.F.%+%+/+5+J.4+/+a.g.a.h.h.h.h./+J.v ",
", m 2.x.x.3.Y Y 2.Z X Y 4.y.Z.~+!+!+!+d+d+e+e+e+e+!+!+!+!+r+r+r+r+r+r+r+r+d+d+e+e+!+!+!+!+I./+%+%+/+5+4+++d.0.a.g.&.&.&.&.0.4+v ",
"- i Z x.x.3.X l Y Y l Y Y.x+x+~+~+Z.Y.!+!+d+d+e+e+e+e+e+e+!+!+!+!+r+r+r+r+d+d+d+d+d+d+e+e+!+!+!+!+!+$+++.+0..+0.'.,.f.^+^+b.5+v ",
"@+y+ .Y Y X l W l l W X 3.x.x.x.x.Y.Y.!+!+d+d+e+e+e+e+e+e+!+!+!+!+r+r+r+r+d+d+d+d+d+d+e+e+!+!+!+!+!+c..+e.'.0..+0.e.,.^+^+b.5+v ",
"#+z+n l X X X l W W l X Z 2.3.4.4.x.y.!+!+d+d+e+e+e+e+e+e+e+e+e+e+!+!+!+!+r+r+r+r+d+d+d+d+c+c+c+r+r+!+!+'.'.h.%+%+0.'.,.f.b.5+v ",
"#+z+W Z Z Z Z Y l l Y Y X Y 4.y.y.y.Z.!+!+d+d+e+e+e+e+e+e+e+e+e+e+!+!+!+!+r+r+r+r+d+d+d+d+c+c+c+r+r+!+!+0.h..+%+%+.+0.e.,.b.5+v ",
"#+y+l 3.3.3.2.Y X Y 3.3.Y Z x.y.Y.x.Y.Y.4.!+!+d+d+e+e+e+e+e+e+d+d+e+e+e+e+!+!+!+!+r+r+r+r+e+e+e+e+e+e+e+!+!+%+.+h.h.h.e.,.b.5+v ",
"#+y+l 3.3.2.Y X Z 3.x.x.3.3.Y.Y.2.Z 3.4.3.!+!+d+d+e+e+e+e+e+e+d+d+e+e+e+e+!+!+!+!+r+r+r+r+e+e+e+e+e+e+e+!+!+%+0.'.&.&.,.f.b.5+v ",
"@+A+X x.x.4.Z Y 2.4.Y.Y.x.x.y.x.Z Y 2.3.3.!+!+d+d+e+e+e+e+d+d+d+d+e+e+e+e+e+e+e+e+!+!+e+e+r+r+r+d+d+e+e+e+e+!+!+'.,.f.^+^+b.5+v ",
"- i 2.y.~+Z.Y.4.3.3.4.x.Y.y.Z.Y.3.2.2.3.3.!+!+d+d+e+e+e+e+d+d+d+d+e+e+e+e+e+e+e+e+!+!+e+e+r+r+r+d+d+e+e+e+e+!+!+h.e.,.^+^+b.5+v ",
", m 2.x.y.y.y.Y.4.3.3.4.y.Z.y.Y.4.3.4.x.x.x.x.!+!+e+e+d+d+d+d+d+d+d+d+e+e+e+e+e+e+d+d+e+e+d+d+d+d+d+e+e+e+e+!+!+.+0.a.'.g.0.4+v ",
", j l Y Y 2.3.4.3.3.3.4.y.y.x.4.3.4.Y.y.~+y.2.!+!+e+e+d+d+d+d+d+d+d+d+e+e+e+e+e+e+d+d+e+e+d+d+d+d+d+e+e+e+e+!+!+0.d./+c..+/+I.v ",
"- B+l Y X X 2.3.3.3.3.4.x.Y.x.4.4.x.Y.!+!+!+!+d+d+d+d+!+!+!+!+d+d+d+d+d+d+d+d+e+e+e+e+r+r+e+e+e+d+d+e+e+e+e+!+!+b.c.$+$+c.$+C+v ",
"@+A+Y 4.2.2.2.3.3.3.3.3.4.x.Y.y.y.Y.x.!+!+!+!+d+d+d+d+!+!+!+!+d+d+d+d+d+d+d+d+e+e+e+e+r+r+e+e+e+d+d+e+e+e+e+!+!+h.d.c.c.d.$+H.v ",
"D+E+F+G+H+Z.Z.Z.Z.~+~+~+x+I+!+!+!+!+!+r+r+d+d+e+e+e+e+d+d+d+d+!+!+!+!+d+d+d+d+d+d+d+d+r+r+e+e+e+d+d+e+e+e+e+!+!+c.F.F.J+K+L+M+} ",
"N+O+P+Q+'+{+R+S+`.`.S+R+T+U+!+!+!+!+!+r+r+d+d+e+e+e+e+d+d+d+d+!+!+!+!+d+d+d+d+d+d+d+d+r+r+e+e+e+d+d+e+e+e+e+!+!+H.H.J.V+W+X+Y+Z+",
"`+ @p..@+@@@#@$@%@w+!+!+!+!+r+r+r+r+r+e+e+e+e+e+e+e+e+e+e+d+d+d+d+d+d+!+!+!+!+d+d+d+d+d+d+r+r+r+e+e+d+d+d+d+!+!+%@&@' S.*@=@-@;@",
">@,@'@)@!@%+%+'.;.u !+!+!+!+r+r+r+r+r+e+e+e+e+e+e+e+e+e+e+d+d+d+d+d+d+!+!+!+!+d+d+d+d+d+d+r+r+r+e+e+d+d+d+d+!+!+#@~@{@]@^@/@(@_@",
":@<@[@}@|@*.!+!+!+!+c+c+c+c+e+e+e+e+e+e+e+e+e+c+c+c+c+r+r+e+e+e+e+e+e+e+e+d+d+!+!+!+!+d+d+r+r+r+e+e+d+d+!+!+i j i B+y+1@O+2@3@4@",
"/ 5@6@7@D f.!+!+!+!+c+c+c+c+e+e+e+e+e+e+e+e+e+c+c+c+c+r+r+e+e+e+e+e+e+e+e+d+d+!+!+!+!+d+d+r+r+r+e+e+d+d+!+!+X l  .n m 8@9@0@a@b@",
"< z C f.g.e.!+!+c+c+d+d+d+d+r+r+r+r+r+d+d+d+d+e+e+e+e+d+d+e+e+c+c+r+r+r+r+e+e+e+e+d+d+!+!+!+!+!+e+e+!+!+Y Z Z Y l W l Y 4.`.R+{@",
"< c@C g.%+d.!+!+c+c+d+d+d+d+r+r+r+r+r+d+d+d+d+e+e+e+e+d+d+e+e+c+c+r+r+r+r+e+e+e+e+d+d+!+!+!+!+!+e+e+!+!+l X X l W l Y 2.4.x+S+3+",
"d@e@-.b.$+++!+!+r+r+r+r+r+r+d+d+d+d+d+r+r+r+r+e+e+d+d+r+r+r+r+d+d+d+d+d+d+e+e+e+e+d+d+r+r+d+d+d+!+!+!+!+l X X l l X Z Z Z Y.I+3+",
"f@g@'.%+G.G.!+!+r+r+r+r+r+r+d+d+d+d+d+r+r+r+r+e+e+d+d+r+r+r+r+d+d+d+d+d+d+e+e+e+e+d+d+r+r+d+d+d+!+!+!+!+Z Z Z Z Z Z X l l 4.x+3+",
"h@*.0.F.G.$+!+!+r+r+d+d+r+r+r+r+r+r+r+d+d+e+e+r+r+r+r+e+e+e+e+e+e+e+e+e+e+e+e+r+r+r+r+e+e+e+e+e+d+d+!+!+Z 2.3.3.3.2.Y l W 3.~+3+",
"i@-.%+G.F.c.!+!+r+r+d+d+r+r+r+r+r+r+r+d+d+e+e+r+r+r+r+e+e+e+e+e+e+e+e+e+e+e+e+r+r+r+r+e+e+e+e+e+d+d+!+!+X Y 2.3.3.3.2.Y l 3.~+3+",
"/ ;..+$+c..+!+!+r+r+d+d+d+d+d+d+r+r+r+r+r+r+r+e+e+e+e+r+r+r+r+e+e+e+e+r+r+r+r+e+e+e+e+d+d+d+d+d+d+d+!+!+l X Z 3.2.Z Z Y l 3.~+3+",
"/ C a.c.d.0.!+!+r+r+d+d+d+d+d+d+r+r+r+r+r+r+r+e+e+e+e+r+r+r+r+e+e+e+e+r+r+r+r+e+e+e+e+d+d+d+d+d+d+d+!+!+X l Z 2.Y X l l W 3.~+3+",
"_ j@g.%+%+0.!+!+r+r+d+d+r+r+r+r+r+r+r+r+r+r+r+r+r+r+r+e+e+e+e+c+c+c+c+e+e+e+e+d+d+d+d+d+d+r+r+r+d+d+!+!+X l Y Y l W W W W 3.x+3+",
": k@f.%+%+d.!+!+r+r+d+d+r+r+r+r+r+r+r+r+r+r+r+r+r+r+r+e+e+e+e+c+c+c+c+e+e+e+e+d+d+d+d+d+d+r+r+r+d+d+!+!+X W l l W W W W W 3.x+3+",
": e@g.c..+.+!+!+r+r+r+r+c+c+c+c+r+r+r+e+e+r+r+d+d+d+d+r+r+r+r+d+d+d+d+d+d+d+d+d+d+d+d+d+d+r+r+r+d+d+!+!+Y X X X X X X l W 3.~+3+",
"_ u d.G.h.g.!+!+r+r+r+r+c+c+c+c+r+r+r+e+e+r+r+d+d+d+d+r+r+r+r+d+d+d+d+d+d+d+d+d+d+d+d+d+d+r+r+r+d+d+!+!+2.Z Z Z Z Z Z Y l 3.~+3+",
"/ >.$+H.0.&.!+!+!+!+r+r+r+r+r+r+r+r+r+e+e+r+r+d+d+d+d+d+d+r+r+r+r+d+d+d+d+d+d+d+d+d+d+d+d+c+c+c+d+d+!+!+2.Z Z 2.3.3.2.Y l 3.~+3+",
"/ >.$+i./+b.!+!+!+!+r+r+r+r+r+r+r+r+r+e+e+r+r+d+d+d+d+d+d+r+r+r+r+d+d+d+d+d+d+d+d+d+d+d+d+c+c+c+d+d+!+!+Y X X Y 2.2.Y l W 3.~+3+",
"( g@c.4+d.h.!+!+!+!+r+r+r+r+r+r+r+r+r+e+e+r+r+d+d+d+d+d+d+r+r+r+r+d+d+d+d+d+d+d+d+d+d+d+d+c+c+c+d+d+!+!+l W W X 2.3.Y l W 3.~+3+",
"/ C b.d.a.'.0.0.a.b.!+!+!+!+r+r+r+r+r+r+r+r+r+d+d+d+d+d+d+d+d+r+r+d+d+d+d+d+d+d+d+r+r+r+r+d+d+d+d+d+!+!+l W W X 4.x.3.Y l 3.~+3+",
"l@D D.h.'.e..+.+e.g.!+!+!+!+r+r+r+r+r+r+r+r+r+d+d+d+d+d+d+d+d+r+r+d+d+d+d+d+d+d+d+r+r+r+r+d+d+d+d+d+!+!+X X X 2.Y.y.4.2.Y x.I+3+",
"m@}@&+.+h.%+++++.+a.g.'.0..+!+!+!+!+!+d+d+r+r+d+d+d+d+d+d+d+d+r+r+d+d+d+d+r+r+r+r+d+d+d+d+d+d+d+!+!+!+!+Z 2.4.Y.y.y.4.3.4.x+{+{@",
"n@o@p@q@.+%+G.5+/+h.&.&.h.%+!+!+!+!+!+d+d+r+r+d+d+d+d+d+d+d+d+r+r+d+d+d+d+r+r+r+r+d+d+d+d+d+d+d+!+!+!+!+Z 4.y.Z.Z.y.4.4.y.I+r@s@",
"h+t@u@E v@b.++5+/+h.&.&.h.%+%+h.&.f.,.!+!+!+!+d+d+d+d+d+d+d+d+r+r+d+d+r+r+d+d+d+d+d+d+!+!+!+!+!+l l W l Z 4.y.Z.Z.y.4.4.y.w@x@y@",
"z@P+d A@B@C@++$+c.b.&.g..+d.0.a.g.,.f.!+!+!+!+d+d+d+d+d+d+d+d+r+r+d+d+r+r+d+d+d+d+d+d+!+!+!+!+!+W W W l Z 4.y.Z.y.Y.x.4.D@E@F@G@",
"H@P R I@J@K@6+c.L@h.&.'.c./+a.'.a.e.,.f.,.,.f.!+!+!+!+r+r+r+r+r+r+d+d+d+d+d+d+!+!+!+!+Z 2.Z X W W W W l Z 4.y.y.x.x.Y.D@M@s.K N@",
"O@q.P@R ,@Q@R@S@T@U@e.a./+/+a.'.h.h.&.^+^+^+^+!+!+!+!+r+r+r+r+r+r+d+d+d+d+d+d+!+!+!+!+X Z Z X W W W W X 3.x.x.4.V@4.H+E@W@X@Y@Z@",
"6 `@p. #.#{.Q@+#@#4+d.0.d.d.0.0..+h.&.^+^+^+^+^+^+f.,.!+!+!+!+r+r+d+d+!+!+!+!+W l l W l Z Z X W W W W Y Y.y.2.##2.2+$#>+%#&#G *#",
"3 =#].P+-#;#3@>#,#j.H.++d.%+%+%+%+h.&.^+^+f.,.,.f.^+^+!+!+!+!+r+r+d+d+!+!+!+!+W W W W l Y Y l W W W W Y Y.Y.Z '#A.g )#!#~#{#K ]#",
"^#/#(#2@_#b r :#<#[#]+s+++%+%+%+%+h.&.^+^+,.e.e.,.^+^+,.e.}#|#!+!+!+!+X 2.Z X W W W W W l l W W W W W X 3.4.2.1#2#)#(#3#4#5#@.. ",
"| (#6#7#o.(.8#9#0#a@h {@@+G.$+$+$+/+%+0.0.d.$+$+.+h.0.c.G.a#b#!+!+!+!+4.y.Y.4.3.3.3.3.3.3.3.3.4.4.3.3.4.y.c#d#e#f#g#h#I 5#5#q N ",
"R.i#!#P q.i#j#k#l#m#b+z+n#s+i.J.J.H.i.i.#+s+' ; J.I.@+' > o#p#q#[.r#s#x+I+I+x+x+~+x+x+~+~+x+I+`.`.I+x+I+{+t#u#r#v#!#(.K w#5#`@8 ",
"x#R.| :.R.y#z#A#B#C#D#f.-.C w v v w C ;.;.g@-.>.u u >.=.=.E#F#G#H#I#J#3+3+3+3+3+3+3+3+3+3+3+{@{@{@3+3+3+{@J#K#L#M#N#+ S.O#P#Q#  "};
