/* XPM */
static const char *closed_door[] = {
/* columns rows colors chars-per-pixel */
"64 64 76 1 ",
"  c #260C06",
". c #2C0D06",
"X c #2D0E08",
"o c #300F06",
"O c #2F1007",
"+ c #311007",
"@ c #381207",
"# c #371208",
"$ c #391308",
"% c #57230B",
"& c #612108",
"* c #6E2C0C",
"= c #762707",
"- c #7B2907",
"; c #762708",
": c #742C0A",
"> c #7A2A09",
", c #75310D",
"< c #7A350E",
"1 c #613412",
"2 c #733C12",
"3 c #7B3A10",
"4 c #7A4A18",
"5 c #822F09",
"6 c #86310A",
"7 c #8B340B",
"8 c #8D3C0F",
"9 c #933B0E",
"0 c #9A3D0E",
"q c #8A3E10",
"w c #903E10",
"e c #9E3F10",
"r c #9E400F",
"t c #934111",
"y c #9C4512",
"u c #974A16",
"i c #9C4914",
"p c #9E5219",
"a c #A3420F",
"s c #A9440F",
"d c #A54310",
"f c #A94510",
"g c #AC4912",
"h c #B54C13",
"j c #B94E14",
"k c #A15319",
"l c #A05419",
"z c #A0541A",
"x c #BB5015",
"c c #BD5316",
"v c #BD5417",
"b c #A36321",
"n c #A46321",
"m c #A36521",
"M c #A46421",
"N c #C05617",
"B c #C05718",
"V c #C05919",
"C c #C55C1A",
"Z c #C6611E",
"A c #C9621E",
"S c #C9641F",
"D c #CD641E",
"F c #CB6720",
"G c #CB6721",
"H c #CF6B23",
"J c #CF6C23",
"K c #CF6B24",
"L c #CF6C24",
"P c #D06B23",
"I c #D06C23",
"U c #D46F23",
"Y c #D46F24",
"T c #D37023",
"R c #D47023",
"E c #D47024",
/* pixels */
"              ....        ...  .  .   ....  .     .....         ",
"O##############$###########$######################$$#$#########+",
".####$#######$###########$$$##########$$####$$##$$$$##$####$###+",
".##4MMMMMMMmbMMMMMMmMmmMMnMMMMmMMMMMMMMMMmMMmMMnnbnMMMMnMMnM1##+",
".##pHIIJIJIHHPIHHHHHPHHPPPHHHPHHHPHHHPPPHHJJKHHLHHHHHHHHHHHI3$#+",
".#$zPIIIIIIPPIPPPHPIPHHPPPPHPHHHPPIPPIIPHPIIPPIIPPPPPPHHHHHI3$#+",
"O#$zHJPIYUIIIIUIIIIIRIIUUUIIUIIIIIYIUREIYITIIIIIEIIIIIIIIHHP3$#+",
".$$zHHPkqq88qq88qqqq88q8888q88q888qq8qq8qqqqq8qqq88qq888iAAD<$$+",
"O$$pHHPi>>>>>>>>>>>>>>>>>>>>>>>>>>>>>>>>>>>>>>>>>>>>>>>>8CCA<$$+",
".$$pGHHi>>>>>>>>>>>>>>>>>>>>>>>>>>>>>>>>>>>>>>>>>>>>>>>>7BVC,$$+",
".$$pHHHi>>>ddddaadaaaddaaaaaddddaaddaadaddadddadaadaa7>>7vvV,$$+",
"O$$pHHHi>>5xhhhhhhhhhhhjhhhhhhhhhhhhhhhhhhhhhhhhhhhhh0>>7cvV,$$+",
"+$$pHHHi>>5jhhhhhhhhjhhjhhhhhhhhhjhhhhhhhhhhhhhhhhhhh0>>7cxB,$#+",
"o$$pHHPi>>5jhhhhhhhhhhhhhhhhhhhhhhhhhhhhhhhhhhhhhhhhh0>>7cxN,$#+",
"O$$pHHPi>>5jhhg0000000000000000000ye00000erey00e0fhhh0>>7xxN,$#+",
".$$zHHHi>>5jhhf>>>>>>>>>>>>>>>>>>>>>>>>>>>>>>>>>>0hhh0>>7xxN:$#+",
"O$$zHHPi>>5jhhf>>>>>>>>>>>>>>>>>>>>>>>>>>>>>>>>>>0hhh0>>7xxN:$#O",
"+$$zHHPi>>5jhhs>>>6777777777777777777777777777>>>0hhh0>>7xxN:$#+",
"+$$pHHPi>>5jhhf>>>fjjjjjjjhjjjjjjjjjjjjjjjhjhh;>>0hhh0>>7jjN,$#+",
"+$$pHHPi>>5jhhf>>>fhhhhhhhhhhhhhhhhhhhhhhhhhhh;>>0hhh0>>7jxv:$#+",
"O$$pHHPi>>5jhhf>>>fhhhhhhhhhhhhhhhhhhhhhhhhhhh>>>0hhh0>>7jxc:$#+",
"+$$zHHPi>>5jhhf>>>fhhhhhhhhhhhhhhhhhhhhhhhhhhh;>>0hhh0>>7jhc:$#+",
"+$$zHHPi>>5jhhf>>>dhhhhhhhhhhhhhhhhhhhhhhhhhhh;>>0hhh0>>7jhc:$#+",
"+$$pHHPi>>5jhhf>>>dhhhhhhhhhhhhhhhhhhhhhhhhhhh;>>0hhh0>>7jhc:$#+",
"+$$pHHPi>>5jhhf>>>dhhhhhhhhhhhhhhhhhhhhhhhhhhh;>>0hhh0>>7jhc:$#+",
"O$$pHHPi>>5jhhs>>>dhhhhhhhhhhhhhhhhhhhhhhhhhhh;>>0hhh0>>7jhc:$#+",
".$$pHHPi>>5jhhf>>>dhhhhhhhhhhhhhhhhhhhhhhhhhhh;>>0hhh0>>7jhc:$#+",
"O$$pHHPi>>5jhhf>>>dhhhhhhhhhhhhhhhhhhhhhhhhhhh;>>0hhh0>>7jhc:$#+",
"+@$pHHPi>>5jhhf>>>shhhhhhhhhhhhhhhhhhhhhhhhhhh>>>0hhh0>>7hhc:$#+",
"+$$pHHPi>>5jhhf>>>shhhhhhhhhhhhhhhhhhhhhhhhhhh;>>0hhh0>>7jhc:$#+",
"+$$pHHPi>>5jhhf>>>shhhhhhhhhhhhhhhhhhhhhhhhhhh;>>9hhh0>>7jhc:$#+",
"+$$pHHPi>>5jhhf>>>dhhhhhhhhhhhhhhhhhhhhhhhhhhh;>>9hhh0>>7jhc:$#+",
"O$$pHHPi>-5jhhf>>>fhhhhhhhhhhhhhhhhhhhhhh00000;>>9hhh0>>7hhc:$#+",
"O$$pGHHi>>5jhhs>>>shhhhhhhhhhhhhhhhhhhhhh>>>>>>>>0hhh0>>7jhc:$#+",
"+$$pHHHi>>5jhhs>>>dhhhhhhhhhhhhhhhhhhhhhh;>>>>>>>0hhh0>>7hhc:$$+",
"+$$pGHHy>>5jhhf>>>dhhhhhhhhhhhhhhhhhhhhhh;>7ff0>>0hhh0>>7hhc:$$+",
"+$$pHHHy>>5jhhs>>>dhhhhhhhhhhhhhhhhhhhhhh;>9hha>>0hhh0>>7hhc:$$+",
"+$$pHHHi>>5jhhs>>>dhhhhhhhhhhhhhhhhhhhhhh;>9hha>>9hhh0>>7hhc:$$+",
"+$$pHHHi>>5jhhf>>>dhhhhhhhhhhhhhhhhhhhhhh;>9hha>>0hhh0>>7jhc:$$+",
"+$$pHHHi>>5jhhs>>>dhhhhhhhhhhhhhhhhhhhhhh;>7fd9>>9hhh0>>7jhc:$$+",
"o@@pHHHy>>5jhhs>>>shhhhhhhhhhhhhhhhhhhhhh>>>>>>>>0hhh0>>7jhc:$$+",
"+#$pHHHi>>5jhhf>>>shhhhhhhhhhhhhhhhhhhhhh>>>>>>>>0hhh0>>7jhc:$#+",
"+$@pGHHi>>5jhhs>>>shhhhhhhhhhhhhhhhhhhhhhassda>>>0hhh0>>7jhc:$$+",
"o@$pGHHi>>5jhhf>>>fhhhhhhhhhhhhhhhhhhhhhhhhhhh>>>0hhh0>>7jhc:$#+",
"+$$pHHHi>>5jhhs>>>dhhhhhhhhhhhhhhhhhhhhhhhhhhh>>>0hhh0>>7jhc:$$+",
"+@$pHHHi;>5jhhf>>>shhhhhhhhhhhhhhhhhhhhhhhhhhh;>>9hhh0>>7jhc:$#+",
"O$$pHHHi>>5jhhf>>>fhhhhhhhhhhhhhhhhhhhhhhhhhhh;>>0hhh0>>7jhc:$#+",
"O#$pHHHi>>5jhhf>>>fhhhhhhhhhhhhhhhhhhhhhhhhhhh;>>0hhh0>>7jhc:$#+",
"+$$pGHHi;>5jhhs>>>fhhhhhhhhhhhhhhhhhhhhhhhhhhh;>>9hhh0>>7jhc:$$+",
"+$$pGHHi;>5jhhs>>>shhhhhhhhhhhhhhhhhhhhhhhhhhh;>>9hhh0>>7jhc:$$+",
"O@$pGGHi;>5jhhf>>>fhhhhhhhhhhhhhhhhhhhhhhhhhhh;>>0hhh0>>7jhv,$$+",
"+$$pGGHi>>5jhhf>>>fhhhhhhhhhhhhhhhhhhhhhhhhhhh=>>9hhh0>>7jhc:$$+",
"+$$pGGHi>>5jhhf>>>0sfffsssffgfffffgffffffffffd;>>9hhh0>>7xhv:$$+",
"+$$pSDGy;>5jhhs>>>>>>>>>>>>>>>>>>>>>>>>>>>>>>>>>>9hhh0>>7jhc:$$+",
"+$$pSSGi;>5jhhf>>>>>>>>>>>>>>>>>>>>>>>>>>>>>>>>>>9hhh0>>7jhc:$$+",
"+$$pSSGi;>5jhhf>>>>>>>>->->>>>>>>>>>>>>>>>>>>>>>>9hhh9>>7jhc:$$+",
"+#$pSSGi;>5jhhhgggggggggggggggggggggggggggggggggghhhh0>>7jhv:$#+",
"O$$pASSy;>5xhhhhhhhhjjjjjjjjjhhhjjjjjjjhhhhhhhhhhhhhh0>>7xhv:$#+",
"O$$pZAAy;>5xjhhhhhhhjjjjjjhjjhhjjjjjjjjjhjhhhhhhhhhhh0>>7xxv:$$o",
".#$pZZZi;>5xhhhhhhhhhhhjjjhhhhhhhhjhhhhhhhhhhhhhhhhhh0;>7xxN*$$+",
"O##2uiu,&&&w88888888988999989888898899988898888888888:&&*wwt%##+",
".#####$#$##$$$#######$$###$$##$########$####$##########$#######.",
".###########$##################$#########$###########$#########+",
" .XX..X.....X.........X..................X.XX.X.X.....XXXX...XX "
};
