/* XPM */
static const char *floor[] = {
/* columns rows colors chars-per-pixel */
"64 64 68 1 ",
"  c #230B06",
". c #2D0E06",
"X c #2E0F08",
"o c #300F07",
"O c #330F08",
"+ c #2F1007",
"@ c #2F1009",
"# c #341007",
"$ c #351108",
"% c #381309",
"& c #541C09",
"* c #5C220A",
"= c #63270B",
"- c #64290B",
"; c #682B0B",
": c #7D2E0A",
"> c #6F3C13",
", c #703711",
"< c #763C14",
"1 c #82300B",
"2 c #893A0E",
"3 c #97370D",
"4 c #99370C",
"5 c #9A380D",
"6 c #974913",
"7 c #984B13",
"8 c #AB4712",
"9 c #AC4812",
"0 c #B64F16",
"q c #B75016",
"w c #BF5417",
"e c #BF5518",
"r c #986523",
"t c #A26322",
"y c #A96D25",
"u c #C15617",
"i c #C45917",
"p c #C15718",
"a c #C35A19",
"s c #C95F1B",
"d c #C7611D",
"f c #CA641E",
"g c #CB651E",
"h c #CE691F",
"j c #CD6720",
"k c #CE6A20",
"l c #D06B20",
"z c #D16E22",
"x c #D46F22",
"c c #D47022",
"v c #D47023",
"b c #D77324",
"n c #D77526",
"m c #D87525",
"M c #DA762A",
"N c #DC762A",
"B c #D37F2E",
"V c #D47F2F",
"C c #DC782B",
"Z c #DE7D2C",
"A c #E77F2E",
"S c #D4802F",
"D c #E6812F",
"F c #E8812F",
"G c #E68130",
"H c #E88130",
"J c #E78832",
"K c #E88A32",
/* pixels */
" ...............................................................",
".$##$$$$$$$$$$$$##$$$$$$$$#$$####$$$$##$$$$$$$$###$##$$$$$$$$$$.",
".$#$$$$$$$$$$$$$$$$$$$$$$$$$$$$$$$$$$$$$$$$$$$$$$$$$$$$$$$$$##$.",
".$$rBSVVVSSSVVVVVVVVSVVVVVVVVVVVVVSVVSVSVVVVVVVVVVVVVVVVVVVS>$#.",
".$$yDGGGGGGHGGGGFFGGHGDDGGFHGHFFFFGGGFDHGGGGGDGFHHGFDGGGDGDK<$$+",
".$$yGGGDDDGGDGGGDDDDGDDDDDDDDDDDAADDDFDGDDDDDDDADDDDAAAAAADJ<$$.",
".$#tMMMMMMMMMMMMMNNNCNMNMMNNMNNNNNNMNNNNMMMMMMNNNNNNNMMMMMMZ,$$.",
".$#7pwwwwwwwwwwwwwwwwwwwwwwwwwwuwwwwwwwwwwuwwwwwwwwwwwwewews;$$.",
".$$6ppuwuueuuuupuuuupuuuuuuuuwuuuuuuuuuuuuuuuwuuuuwuuuwwuwws;$$.",
".$#6puuwuwsddswuuuuupuuuuuuwsddduuuuuuuuuuuuuuuuusdddwwuuuws;$$.",
".$#6pwuuuwzbbzwuuuuupuuuuuuwzcccwuuuuuuuuuuuuuuuuzbcxwuuuuua;$$.",
".$#6uuuuuwzbbzupuuuppuuuuuuwzcccwuuuuuuuuuuuuwuuwzbczuuuuuua-$#.",
".$#6puuuuukcchwwuuaaauuupuuwlcczuuuuuuwaaapuuwuuwlcczuuuuuua-$#.",
".$#6uuuuuuwwwwwwwlmmmfuuuuuuwwwwuuuuuuambbfuuuuuuuuuupupuuua-$#.",
".$#6uuuuuuuuuuuuwhbbbdpuupuupuuuuuuuuuancbduuuuuuuuuuuuuuuua-$$+",
".$#6uuuuuupuuuuuwhbbbduuuuuuuuuuuupupuanbbduuuuuuuuuupuuuuui-$$.",
".$#6wuuuuuppupppuassspuupuuuuuuuuuuupuusssauuuuuuuuuupupuuwi-$$o",
".$#6uwuuuueuuuupuuuupuuuuuuuuuuuuuuuuuuuuuuuuuuuuuuuupuuuuwi-$$o",
".$#6uuuuuupuppppuuuupuuuuuuuuuuuuupuuuuuuwuuuuuuuuuuupuuuuwi-$$#",
".$#6ppuuuwzzlkepuupupuuupuuuuuuuuupupuuppuuuuuuuufzzhppuuuua;$$.",
".$#7auppuwnbbbepuupppppuppuuuuuuuupupuupppupuuuuukbbcpppuuua;$$.",
".$#7apppuwnbbcepuupppppuppupuuuuuupppuupppppupuuukbbcpppupua-$$#",
".$#7appuuufffdepuupppuppskhkduuuuupppuakkksuuuuuusfddpppuuua-#$.",
".$#7appuuuppppppuuppppppdbccfuuuuupupuanbbdpuuuuuupuupppuuua-$$.",
".$#6ppuuuuppupppuupppuuudcccfuuuuupupuanccdpuuuuuuuuupppuuua-$$#",
".$#6ppupuuppppppuuuppuppsfffsuuuuupupuafffsuuuuuuuuuupppuuua;$$.",
".$#6apppuuppppapuuuppppuppuppuuuuupppuuppuuuuuuuuuuuupppuuua-$$.",
".$#7appppppppaapuupppppuppuppuuuuupupuupppuuuppuuupuuapapuua-$$.",
".$#6pppppupppadddapppppuppuppuuuuupupuuuupuuuuuuuupuudddapua-$$+",
".$#6apuppupppdbbcfpppppuppuuuuuuuupuuuuppuuuuuuuuupuanbbfpua-$$.",
".$$6appppppppdbccdppppppppuppuuuuupupuuppppuupuuuupuanbbfpua-#$.",
".$#6appppupppdbzxdpppppuppuppuuuuupppuuaaapuuuuuuupusbccdpua-$$.",
".$#7apppppppppppuuppppppapuaw00qwupupuanbbdpuuuuuupuupppupui-$$.",
".$#7appppuppppppuuppppppppupwwwwwupepuabbbdpuuuuuuuuuappppui-$$.",
".$#6appwuwppupppuuppppuuppuuwwwwuupppuanbbdpuuuuuupuuppppuui-$$.",
".$#7apazzzdpppppuuppppppppuppuuuuupppuuaaaapuuuuuupuuapuuuui-$$.",
".$#7aadbbbdappapuuppppppppuppuuuuupppuupapppupuuuupuuappppui-$$o",
".$#7aadbccdpppppuaaaaappppuppuuuuupppuuuapuuupuuuaaaaappuuua-$$.",
".$$6apadddapupppudnnbfppppuppuuuuupupuuuuuuuuuuuuznnzpaapuwi=$$#",
".$#6apuppupuppppudcbbfppppuuuuuuuupuuuuppuuuuuuuukbczaapuuua-$$.",
".$#6aupuuuppppppufbbbfpuppuppuuuuupupuupppuuuuuuulnmcaaauuua=$$.",
".$#6apuuuuppupppuuwwwuuuppuukzzluupuuuupupuuuuuuuuuuuaaauuui=$$#",
".$$6apppuuppppppuuupppuuppupzcczuupupuupppuuuuuuuuuuuauuuuwi=$$#",
".$#6apupppppppppuuppppppppupzcczuupppuupppppuuuuuupuuappuuua=$$#",
".%$6apppppdjfkapuuppppppppupffffuupppuuapufffdpuuppuuappuuui=$$.",
".$$6ppuppwkcbbspuuppppppppuppuuuuupupuuupwbcchuuuuuuupuuuuwi-$$.",
".$$6pppppukbbbspuuppppppppuppuuuuupppuuppwcbckuuuuuuuppuuuwi-$$.",
".%$6ppppppjzxcspuuppppppppuppuuuuupasssppwzzzfpuuuauupppuuwi=$$.",
".%#6pppuuuwwwwepuuppppupppuupuuuuupfbcbwppwwwuuuuuuuuppuuuwi=$$.",
".$$6puuuuuppupppuuuppppppuuuuuuuuuphbcbuapuuuuuuuupuupuuuuwp=$$.",
".$$6puuuuupuuppuuuuupuuuppuupuuuuuphbcnwppuuuuuuuuuuupppuuwi=$$.",
".$#6puuuuupuupppuuupubbncpuuuuuuuupaaasuuuuuuuuuuznncpppuuwi=$$.",
".$$6puupuupuuppuuuppwccbzpuuuuuuuupupuuuuuuuuuuuplbccppuuuui-$$o",
".$$6auupuupuupupuuuuwcbbzpuuuuuuuupupuuuuuuuuuuuulcccupuuuui=$$.",
".$#6auuuuuuuuuuuuuuuudddsuuuuuuuuupuuuuuuuuuuuuuusdddppuuuwi=$$.",
".$$6puwwuuuuuuuuuuuuuuuuuuuuuuuuuuuuuuuuuuuuuuuuuuuuuuuuuwwu=$$+",
".$$6uuwwuuuuuuuwuuuuuuuuuuuuuuuuuuuuuuuuuuuuuuuuuuuuuuuuuwwu*$$.",
".%$298888888888888888888888888888899989998998988889989998888*$$.",
".%#155355335555555555555544454454455555555555544455555555535&$$.",
".$$:53333355555554555555554543445455555555555554445445555335&$$.",
".$#:55555555555555555555555555555555555555555555555555555445&$$.",
".$#$$$$$$$$$$$$$$$$$$$$$$$$$%$$$$$$$$$$$$$$$$$$$O$$#O$$$$$$$#$$.",
".$$$$$$$$$$$$$$$$$$$$$$$$$$$$$$$$$$$$$$$$$$$$$$$#$$#$$$$$$$$$$$+",
" #XX@X@@@@@@X@@@XX@XX@@@@@X@@XXXXXX@@XXX@@X@XXXXXX@XX@@@@@@@@X@."
};
