/* XPM */
static const char *open_exit[] = {
/* columns rows colors chars-per-pixel */
"64 64 92 1 ",
"  c #230B06",
". c #2C0D06",
"X c #2D0E08",
"o c #350F07",
"O c #350F08",
"+ c #2F1007",
"@ c #341007",
"# c #381107",
"$ c #361108",
"% c #381209",
"& c #401709",
"* c #4D1C0B",
"= c #5B1E07",
"- c #501C0A",
"; c #5A1E08",
": c #5A2C0D",
"> c #612109",
", c #6E2409",
"< c #772807",
"1 c #792807",
"2 c #722609",
"3 c #762909",
"4 c #7A2A09",
"5 c #6B320E",
"6 c #76350F",
"7 c #78360F",
"8 c #6F3910",
"9 c #773810",
"0 c #7D3C10",
"q c #734215",
"w c #812F0A",
"e c #85310B",
"r c #8C350C",
"t c #8D3C0F",
"y c #90370B",
"u c #953A0D",
"i c #9C3E0E",
"p c #8B3E10",
"a c #923E10",
"s c #9E3F10",
"d c #9E400F",
"f c #8C4211",
"g c #924513",
"h c #9F4010",
"j c #954D17",
"k c #9B4E16",
"l c #954E18",
"z c #9B4F18",
"x c #9B5018",
"c c #A2410F",
"v c #A54310",
"b c #A34410",
"n c #AB4611",
"m c #A74E15",
"M c #AC4912",
"N c #B44C13",
"B c #B54C13",
"V c #B64D13",
"C c #B44C14",
"Z c #B54C14",
"A c #B94E14",
"S c #BA4F15",
"D c #A75016",
"F c #A95117",
"G c #AA5318",
"H c #BA5016",
"J c #BD5014",
"K c #B05A1A",
"L c #A3611F",
"P c #A4641F",
"I c #A36321",
"U c #A46321",
"Y c #A36421",
"T c #A46421",
"R c #C15416",
"E c #C6611E",
"W c #CA641F",
"Q c #CE681F",
"! c #CC6620",
"~ c #CC6720",
"^ c #CC6822",
"/ c #CD6A23",
"( c #CF6C23",
") c #CE6B24",
"_ c #CF6C24",
"` c #D06B22",
"' c #D26D23",
"] c #D46F23",
"[ c #D06C24",
"{ c #D47023",
"} c #D37024",
"| c #D47124",
/* pixels */
" ...............................................................",
".$$$$$$$$$$$$$$$$$%$$%$$$$$$$$$$$$$$$$$$$$$$$$$$$$$$$$$$$$$$$$@.",
".$$$$$$$$$$$%$$$$$%$$%$$$$$$$$$$$$$$$$$$$$$$$$$$$$$@@$$$$$$$$$@.",
".%$qYYYUTTUTTTTTTTTTYUYTYIPTUYTTTTTTYUTTTYIYTUUUUYYYIIIILITT:$$.",
".%#l/)////)///(_////)///((((///```[(/`('((`((((`('/((//////'6$$+",
".%#l/_///`/``((['`'''``''''''`'`''[('''''''''''''''`'(((///[6$$+",
".%#l/_/'}}}['}}}'{}}}[}|}}{}}}|]{||||]||}}[||||{||}{|}}}'//[9$$+",
".%#l//'zppfppffftpppppfffppppppptpppftpfpppppppptppttpppK//'6$$@",
".%#l///g444444444444444444444444444444444444444444444444G//'6$$+",
".%#l///g444444444444444444444444444444444444444444444444G~/'6$$+",
".%%l///g444bbbbbccbbbbbbbbcbccccdc432222222,,,,,22,,,444F~/'7$$@",
".%#l///g44eHZZZZZZZZZZZZZZVZZZVVVJ-%%%%%%%$$$$$OO$$$O444F~/'6$$+",
".%$l///g44eAZZZZZZZZZZZZZZVZZZVZVJ*%%%$$%%%%$$$$$$$%O443F~/'6$$@",
".%#l///g44eHZZZZVVZZZZZZZZVZZVVVVJ*%%%$$%%$$%$$$$$$#O444F~/`6$$+",
".%#l///g34wAZZMiiihssisisiiiiiVVVJ*%%%$%$$$%$$$$$$$$O444F~/`6$$+",
".%#l///g44wAZZn444444444444444MVVJ*%$%%$$$%$$$$$$$$#o443F~/`6$$@",
".%#l///g44wAZZn444444444444444MVVJ*%$$$$%%$%%$$$$$$#o443F~/'6$$+",
".%#l///g44wAVZn444errrrrrrw444MVVJ*%%$$$%%$$%$$$$$$$o444F~/'7#$.",
".%#l///g44wAZZn444nAAAAZZZu441MVVJ*%$$$$$$%$$$$$$$%#o444F~/`6$$+",
".%#l///g44wAZZn444vZZZZZZZu444MVVJ*%%$$%%$%$$$$$$$%#O444F~~`6$$.",
".%#l///g44wAZZv444vZZZZZZZu444MVVJ*%$$$%%%%$$$$$$$%$O444F~~`6$$+",
".%#l///g44wAZZv444vZZZZZZZu444MVVJ*$$$$$$$$$$$$$$$%##444FW/`6$$+",
".%#l///g44wAVZv444vVZZZZZVu444MVVJ*$$$$$%$$$$$$$$$$%#444F~/'6$$@",
".%#l///g44wAZZv444vZZZZVVZu444MVVJ*$$%$%$%$$$$$$$$$##444FW~`6$$@",
".%#l///g34wAVZv444vZZVZZZVu441MVVJ*$$%$$%$%$$$$$$$$#o444D~W`6#$@",
".%#l///g34wAVZv444vVZZZVZVu441MVVA*$$%$$$$$$$$$$$$$$#444D~~`6#$@",
".%#l///g34wAVZv444bVZVVVVVu444MVVJ*$$%$$$$$$$$$$$$$#o444F~/'6$$@",
".%#l///g34wAVZv444vZZZZVZVu444MVVJ*$$$$$$$$$$$$$$$$#o444F~/'6$$@",
".%#l///g44wAVZv444vVZZVVZVu441MVVJ*$$$$$$$$$$$$$$$$$o444F~/'6$$@",
".%#l///g34wAVZv444bZZZVZVVu441MVVJ*$$$$$$$$$$$$$#$$#o444F~~`6#$.",
".%#l///g34wAVZv444cVZZVVZVu441MVVJ*$$$$$%$$$$$$$$$$$o444F~~`6$$@",
".%#l///g34wAVZv444vVZVVVVVu441MVVA*$$$$$$$$$$$$$$$$$#444F~/`7$$@",
".%#l///g34wAVZv444bVZVZcdir44<MVVA*$$$$$$$$$$$$$$$$#o444FW~`6$$+",
".%#l///g34wAVZv444bZZZZe444441MVVA*$$$$$$$$%$$$$$$$#o444F~~`6$$+",
".%#l///g34wAVZv444bZZZAe444441MVVJ*$$$$$$$$$$$$$$$$#o444FW~`6$$@",
".%#l///g34wAVZv444bVZZAe44unncMVVA*$$$$$%$$$$$$$$$$$o444FW~`6#$@",
".%#l///g34wAVZv444bVZZAe44uVVnMVVJ*$$$%$%$$$%$$$$$$$o444FW~`6#$@",
".%#l///g34wAVZv444bZZVAe44uVVvVVVJ*$$%$$$$$$$$$$$$$#o444FW~`7#$@",
".%#l///g34wAVZv444bZZZZe44uVVnMVVJ*$$$$$$$$$$$$$$$$#O444FW~`6$$@",
".%#l///g34wAVZv444bVZVAe44wrreMVVJ*$$$$%$$$$$$$$$$$$o444FW~`6$$@",
".%#l///g34wAZZv444cVZVAe444441MVVJ*$$$$$$$%$%$$$$$%#o444FW~`6$$@",
".%#l///g34wAVZv444bZZZAe444441MVVJ*$$$$$$$$%$$$$$$$#$444FW~`6$$@",
".%#l///g34wAVZv444vVZVZnnny444MVVJ*$$$$$$$$$$$$$$$$$#444FW~`6$$@",
".%#l///g34wAVZv444cVZVVVVVu444MVVJ*$%$$$$$$$$$$$$$$#o444mWW/6#$+",
".%#l///g34wAVZv444vVZZZZVVu444MVVJ*$$$$$$$$$$$$$$$$#o444mWW`6$$+",
".%#l///g34wAVZv444vVZZZZVVu441MVVJ*$$$$$$$$$$$$$$$$#o444FWW/6$$+",
".%#l///g34wAVZv444vZZZZVZZu444MVVJ*$$$$$$$$$$$$$$$$#o444FWW`6$$@",
".%#l///g344AVZv444vVZZVVZZu441MVVJ*$$$$$$$$$$$$$$$$##444FWW`6$$@",
".%#l///f34eAVZv444bZZVVZVVu44<MVVJ*$$$$$$$$$$$$$$$$##444mWW`6$$@",
".%#l///g334AVZv444vZZZVVVVu441MVVJ*$$$$$$$$$$$$$$$$$$444mWW`6$$@",
".%#l///g334HVZv444vVZVVVVVu441MVVJ*$$$$$$$$$$$$$$$$$#444mWW`6$$@",
".%#l///f334HVZv444cZZVZVVVu44<MVVJ*$%$$$$$$$$$$$$$$#o444mWW/6$$@",
".%#l///f344AVZv444unnnnMnnr44<MVVJ*$%$$$$$$$$$$$$$$$O444mWW`6$$+",
".%#l~//f244AVZv444444444444444MVVJ*$$$$$$$$$$$$$$$$$#444mWW/6$$@",
".%#j///f234AVZv44444444444444<MVVA*$$$$$$$$$$$$$$$$$o444mEW/6$$@",
".%#l///f234HZZv44444444444444<MVVJ*$$$$$$$$$$$$$$$$$#444mEW/6$$@",
".%#l~//f234HZZZMMMMMMMMMMMMMMnVVVJ*$$$$$$$$$$$$$$$$$o444mEWQ6$$@",
".%$j///f234HZZZZZZZZZAAAAAVZZZVVZR*$$$$$$$$$$$$$$$$#o444mEW~6$$@",
".%$l/~/f234HZZZZZZAZZZZZZZZZZZZZZR*$$$$$$$$$$$$$$$$$o444mWW~6$$.",
".%#j~~~f,24HZZZZZZZZZZZZZZZZZZZZZR*$$$$$$$$$$$$$$$$#o444mEEW6$$+",
".%$8zxx5;=>apppattutputtpttttttttg&$$$$$$$$$$$$$$$$$$:>>0kkk:$@.",
".$$$$$$$%%$%%%%$$#%$$%%%%%%%%$$$$$$$$$$$$$$$$$$$$$$$$$%%%$$$$$$.",
".$#$$$$$$$$$$$$$$$$$$$$$$$%%$$$#$$$$$$$$$$$$$$$$$$$#$$$$$$$$$$$@",
" X..X.XXXX.X..X.....X.X.XX..X.....XXX....X...........XXXXX.X..X."
};
