/* XPM */
static const char *object[] = {
/* columns rows colors chars-per-pixel */
"64 64 172 2 ",
"   c #230A06",
".  c #2D0E06",
"X  c #2C0F09",
"o  c #300F07",
"O  c #2F1007",
"+  c #2D1009",
"@  c #351107",
"#  c #391307",
"$  c #361208",
"%  c #391309",
"&  c #4D1A07",
"*  c #441A09",
"=  c #4C1C08",
"-  c #531C09",
";  c #581F09",
":  c #422207",
">  c #53210A",
",  c #5B240A",
"<  c #5E2B0C",
"1  c #4D3508",
"2  c #513307",
"3  c #62270B",
"4  c #64290B",
"5  c #6B2C0C",
"6  c #712D0B",
"7  c #7D2D0A",
"8  c #6A350F",
"9  c #76390D",
"0  c #6B3510",
"q  c #703711",
"w  c #743B13",
"e  c #4F420C",
"r  c #57420C",
"t  c #694E06",
"y  c #654D0E",
"u  c #754D06",
"i  c #665306",
"p  c #695507",
"a  c #725306",
"s  c #7B5006",
"d  c #755A06",
"f  c #665212",
"g  c #776105",
"h  c #7F6607",
"j  c #7E6906",
"k  c #74660E",
"l  c #83330C",
"z  c #8F330C",
"x  c #84390F",
"c  c #92340C",
"v  c #99370C",
"b  c #97380D",
"n  c #99380D",
"m  c #8B3C10",
"M  c #845B06",
"N  c #925705",
"B  c #965E05",
"V  c #93530C",
"C  c #99520F",
"Z  c #8E4A11",
"A  c #924011",
"S  c #9D4110",
"D  c #974913",
"F  c #984B13",
"G  c #A2410F",
"H  c #A9430C",
"J  c #B5450E",
"K  c #B8470D",
"L  c #BA4A0F",
"P  c #A65F05",
"I  c #A34311",
"U  c #A64A13",
"Y  c #AB4C14",
"T  c #B14F15",
"R  c #BA4A10",
"E  c #A75017",
"W  c #A85513",
"Q  c #B55116",
"!  c #BE5417",
"~  c #BE5518",
"^  c #B0581A",
"/  c #896805",
"(  c #9B6006",
")  c #936B05",
"_  c #9D6E04",
"`  c #9B7205",
"'  c #987306",
"]  c #9E7E05",
"[  c #917911",
"{  c #A0620F",
"}  c #A07C07",
"|  c #B77905",
" . c #996623",
".. c #A26221",
"X. c #A96D25",
"o. c #C15617",
"O. c #C45917",
"+. c #C15718",
"@. c #C35A19",
"#. c #C95F1B",
"$. c #C7611D",
"%. c #C9631D",
"&. c #CE691F",
"*. c #D06B1F",
"=. c #F27C00",
"-. c #CD6920",
";. c #D16D21",
":. c #D46F22",
">. c #D57122",
",. c #D67223",
"<. c #D67224",
"1. c #D87525",
"2. c #DB752A",
"3. c #DC7529",
"4. c #D57F2F",
"5. c #DD7D2C",
"6. c #E77F2F",
"7. c #9E8204",
"8. c #A18504",
"9. c #AE8705",
"0. c #A28904",
"q. c #B38A08",
"w. c #BF9C05",
"e. c #BCA620",
"r. c #C98004",
"t. c #D08002",
"y. c #D58B05",
"u. c #C49403",
"i. c #C29D05",
"p. c #D49D02",
"a. c #E98601",
"s. c #E78800",
"d. c #EC8B01",
"f. c #F38200",
"g. c #F48C00",
"h. c #EA9301",
"j. c #F69200",
"k. c #CCA502",
"l. c #D3A103",
"z. c #C7A512",
"x. c #E3A901",
"c. c #F6A600",
"v. c #FAA500",
"b. c #FDAE00",
"n. c #FEB100",
"m. c #F4B801",
"M. c #FBB900",
"N. c #FDB50D",
"B. c #F8BD08",
"V. c #FDB612",
"C. c #FEBA14",
"Z. c #FEBD19",
"A. c #D5802F",
"S. c #D6842F",
"D. c #D58030",
"F. c #E6802F",
"G. c #E8812F",
"H. c #E68030",
"J. c #E88130",
"K. c #E88932",
"L. c #C2AF26",
"P. c #C2B022",
"I. c #CFB627",
"U. c #DDBD26",
"Y. c #FDC31D",
"T. c #FEC81A",
"R. c #F7C222",
"E. c #FEC621",
"W. c #FECB25",
"Q. c #F1CE2B",
"!. c #FECF28",
"~. c #FED22A",
/* pixels */
"  . . . . . . . . . . . . . . . . . . . . . . . . . . . . . . . . . . . . . . . . . . . . . . . . . . . . . . . . . . . . . . . ",
". $ @ @ $ @ $ $ $ $ $ $ $ $ $ $ @ @ $ $ $ $ $ $ $ $ @ $ $ @ @ @ @ $ $ $ $ @ @ $ $ $ $ $ $ $ $ @ @ @ $ @ @ $ $ $ $ $ $ $ $ $ $ . ",
". $ @ $ $ $ $ $ $ $ $ $ $ $ $ $ $ $ $ $ $ $ $ $ $ $ $ $ $ $ $ $ $ $ $ $ $ $ $ $ $ $ $ $ $ $ $ $ $ $ $ $ $ $ $ $ $ $ $ $ @ @ $ . ",
". $ $  .4.A.A.4.4.A.A.A.4.4.4.A.A.4.4.4.D.4.4.4.4.4.4.4.4.4.4.4.4.4.A.4.4.A.A.A.4.4.4.4.4.A.4.4.4.4.4.4.4.4.4.4.4.4.4.S.w $ $ . ",
". $ $ X.F.H.H.H.H.H.H.J.H.H.H.H.G.G.H.H.J.H.F.F.H.H.G.J.H.J.G.G.G.G.H.H.H.G.F.J.H.H.H.H.H.F.H.G.J.J.H.G.F.H.H.H.F.H.F.K.w $ $ O ",
". $ $ X.H.H.H.F.F.F.H.H.F.H.H.H.F.F.F.F.H.F.F.F.F.F.F.F.F.F.F.F.6.6.F.F.F.G.F.J.F.F.F.F.F.6.F.6.F.F.F.F.6.6.6.6.6.6.F.K.w $ $ . ",
". $ @ ..2.2.2.2.2.2.2.2.2.2.2.2.2.2.2.2.2.2.2.2.2.2.3.2.2.2.3.2.3.3.2.2.2.3.2.2.2.2.2.2.2.2.2.3.2.2.2.2.2.2.2.2.2.2.2.5.q $ $ . ",
". $ @ F +.! ! ! ! ! ! ! ! ! ! ! ! ! ! ! ! ! ! ! ! ! ! ! ! ! ! o.! ! ! ! ! ! ! ! T Y Y Y Y Y Y Q ! ! ! ! ! ! ! ~ ! ! ! #.5 $ $ . ",
". $ $ D +.+.o.! o.o.~ o.o.o.o.+.o.o.o.o.+.o.o.o.o.o.o.o.o.o.o.o.o.o.o.o.o.o.o.! > % % % % % % I o.o.! o.o.o.! ! o.! ! #.5 $ $ . ",
". $ @ D +.o.o.! o.! #.%.%.$.! o.o.o.o.o.+.o.o.o.o.o.o.! #.%.%.$.o.o.o.o.o.o.o.! > $ $ $ $ $ $ I o.$.%.%.%.! ! o.o.o.! #.5 $ $ . ",
". $ @ D +.! o.o.o.! ;.<.<.;.! o.o.o.o.o.+.o.o.o.o.o.o.! ;.,.,.,.! o.o.o.Q U U U 9 5 6 4 @ $ $ I o.;.<.,.:.! o.o.o.o.o.@.5 $ $ . ",
". $ @ D +.o.o.o.o.! ;.<.<.;.o.+.o.o.o.+.+.o.o.o.o.o.o.! ;.,.,.,.! o.o.o.U % % = L L R H @ $ $ I ! ;.<.,.;.o.o.o.o.o.o.@.4 $ @ . ",
". $ @ D o.o.o.o.o.o.-.;.:.&.! ! o.@.@.@.@.+.o.o.+.o.o.o.-.;.;.;.o.o.o.o.U % % & K J K H @ $ $ I ! -.;.:.;.o.o.o.o.o.o.@.4 @ @ . ",
". $ @ D o.o.o.o.o.o.! ! ! ! ! ! ! *.1.1.1.%.o.o.o.o.o.o.! ! ! ! o.o.o.o.U % # & K J K H $ $ $ I o.o.o.o.o.+.+.+.o.o.o.@.4 $ @ . ",
". $ @ D o.o.o.o.o.o.o.o.o.o.o.o.! &.<.<.<.%.+.o.o.+.o.o.+.o.o.o.o.o.o.o.U % @ & K J K H @ $ % I o.o.o.o.o.o.o.o.o.o.o.@.4 $ $ O ",
". $ @ D o.o.o.o.o.o.+.o.o.o.o.o.! &.<.1.1.%.o.o.o.o.o.o.o.o.o.o.o.o.+.o.U % % & K J K H @ $ $ I o.o.o.o.o.+.o.o.o.o.o.O.4 $ $ . ",
". $ @ D ! o.o.o.o.o.+.+.o.+.+.+.o.+.@.@.@.+.o.o.+.o.o.o.o.o.o.o.o.I A A C 9.9.q.y.y.y.| % $ $ I o.o.o.o.o.+.o.+.o.o.! O.4 $ $ o ",
". $ @ D o.o.o.o.o.o.~ o.o.o.o.+.o.o.o.o.+.o.o.o.o.o.o.o.o.o.o.o.o.5 % $ M M.n.n.n.b.b.l.# $ $ I o.o.o.o.o.+.o.o.o.o.! O.4 $ $ o ",
". $ @ D o.o.o.o.o.o.! o.o.+.+.+.o.o.o.o.+.o.o.o.o.o.o.o.o.o.o.o.o.5 % $ s M.n.n.n.b.b.l.# @ $ I o.o.o.o.o.+.o.o.o.o.o.O.4 $ $ @ ",
". $ @ D +.+.o.o.o.! ;.;.;.;.~ +.o.o.+.o.+.o.o.o.+.o.o.o.o.o.o.o.o.5 % $ s M.n.n.n.b.b.l.@ $ % I o.&.;.;.;.+.+.o.o.o.o.@.5 $ $ . ",
". $ @ F @.o.+.+.o.! 1.<.<.<.~ +.o.o.+.+.+.+.+.o.+.+.o.o.o.o.o.o.o.5 % $ s M.n.n.n.b.b.l.@ $ $ I o.-.<.<.,.+.+.+.o.o.o.@.5 $ $ . ",
". $ @ F @.+.+.+.o.! 1.<.<.<.~ +.o.o.+.+.+.+.+.o.+.+.o.+.o.o.o.o.o.6 % $ u M.n.n.n.n.b.l.# $ $ I o.-.<.<.,.+.+.+.o.+.o.@.4 $ $ @ ",
". $ @ F @.+.+.o.o.o.%.%.%.%.~ +.o.o.+.+.+.o.+.+.#.;.;.;.%.Q I I I ' 0.0.q.Y.Y.Y.N.n.b.x.8.0.0.{ I E ^ %.%.+.+.+.o.o.o.@.4 @ $ . ",
". $ @ F @.+.+.o.o.o.+.+.+.+.+.+.o.o.+.+.+.+.o.+.$.<.,.,.&.U @ @ % k.n.n.N.~.~.~.C.n.n.n.n.n.n.] % # 3 ! o.+.+.+.o.o.o.@.4 $ $ . ",
". $ @ D +.+.o.o.o.o.+.+.o.+.+.+.o.o.+.o.+.o.o.o.%.,.,.,.%.U @ @ # k.n.n.N.~.~.~.C.n.n.n.n.n.n.7.% @ 3 ! o.+.+.+.o.o.o.O.4 $ $ @ ",
". $ @ D +.+.o.+.o.o.+.+.+.+.+.+.o.o.+.+.+.o.+.+.#.%.%.%.#.U @ @ # k.n.n.N.~.~.~.C.n.n.n.n.n.n.7.$ @ 3 o.o.+.+.o.o.o.o.O.5 $ $ . ",
". $ @ D @.+.+.+.o.o.+.+.+.@.@.+.o.o.+.+.+.+.+.+.+.+.o.+.+.U @ @ # k.n.n.N.~.~.~.C.n.n.n.n.n.n.7.$ @ 3 o.o.+.+.+.o.o.o.@.4 $ $ . ",
". $ @ D @.+.+.+.+.+.+.+.+.@.@.+.o.o.+.+.+.+.+.o.+.+.o.+.+.U @ @ # k.n.n.N.~.~.~.C.n.n.n.n.n.n.7.% @ 3 o.o.@.+.@.+.o.o.@.4 @ $ . ",
". $ @ D +.+.+.+.+.o.+.+.+.#.%.%.%.#.+.+.+.+.+.o.+.+.o.+.+.U @ @ # z.Z.Z.Y.~.~.~.C.n.n.n.n.n.n.7.% @ 4 o.@.%.%.%.#.+.o.@.4 $ $ . ",
". $ @ D @.+.o.+.+.o.+.+.+.$.<.,.,.%.+.+.+.+.+.o.+.+.o.o.o.U @ @ # I.~.~.~.~.~.~.C.n.n.n.n.n.n.7.% @ 3 o.@.1.<.<.%.+.o.@.4 $ $ . ",
". $ $ D @.+.+.+.+.+.+.+.+.$.<.,.,.%.+.+.+.+.+.+.+.+.o.+.+.U @ @ % I.~.~.~.~.~.~.C.n.n.n.n.n.n.8.% @ 3 o.@.1.<.<.%.+.o.@.4 @ $ . ",
". $ @ D @.+.+.+.+.o.+.+.+.$.;.;.;.%.+.+.+.+.+.o.+.+.T U U C ) ' ' U.~.~.~.~.~.~.C.n.n.n.n.n.n.8.% @ 3 o.@.,.;.;.$.+.o.@.4 $ $ . ",
". $ @ F @.+.~ ~ +.+.+.+.+.+.+.+.o.o.+.+.+.+.+.+.@.+.x @ @ g n.n.n.W.~.~.~.~.~.~.C.n.n.n.n.n.n.7.$ @ 4 ! o.@.+.@.+.+.o.O.4 $ $ . ",
". $ @ F @.+.~ ~ +.o.+.+.+.+.+.+.o.o.+.+.+.+.+.+.+.+.x @ @ g b.b.n.W.~.~.~.~.~.~.C.n.n.n.n.n.n.7.$ @ 4 o.o.@.+.+.+.+.o.O.4 $ $ . ",
". $ @ D @.+.+.! ! ! ~ +.o.+.+.+.o.o.@.@.+.+.! U U U V / M } N.V.V.W.~.~.~.E.Y.E.N.n.n.n.n.n.n.7.% @ 3 o.o.+.+.+.+.o.o.O.4 $ $ . ",
". $ @ F @.+.#.<.<.,.$.+.+.+.+.+.o.o.+.@.+.+.T % @ # u.n.n.V.~.~.~.~.~.~.!.n.n.n.n.n.n.n.n.n.n.7.% @ 3 o.o.@.+.o.o.o.o.O.4 $ $ . ",
". $ @ F @.@.$.<.<.<.$.+.+.@.+.+.+.o.@.@.+.+.Q % $ % u.n.n.V.~.~.~.~.~.~.!.b.n.n.n.n.n.n.n.b.n.7.$ @ 4 o.o.@.+.+.+.+.! O.4 $ $ o ",
". $ @ F @.@.$.<.,.<.$.+.+.+.+.~ T Q Q Q Q Q W j j h l.N.N.Z.~.~.~.~.~.~.!.b.n.n.n.n.n.n.b.b.b.] % @ 4 #.#.@.@.+.+.o.o.@.4 $ $ . ",
". $ $ D @.+.@.#.#.#.@.+.o.+.+.Q * % % # % % h M.M.M.T.~.~.~.~.~.~.~.~.~.!.b.n.n.n.b.n.v.=.=.=.B % @ 0 ,.;.~ @.@.o.o.o.O.4 $ $ @ ",
". $ @ D @.+.o.+.+.o.+.o.+.+.+.Q = % $ @ % % j M.n.n.Y.~.~.~.~.~.~.~.~.~.!.b.n.n.n.n.b.v.=.=.f.( % @ 8 ,.:.@.@.+.o.o.o.@.4 $ $ . ",
". $ @ D @.o.o.+.o.o.+.+.Q Y Y Y a t t y f f [ N.N.N.E.~.~.~.~.~.~.~.!.!.!.n.n.n.n.n.n.c.a.d.d.( > > w ,.;.@.@.@.o.o.o.@.4 $ $ o ",
". $ @ D @.+.+.o.+.o.+.+.m # # i m.n.n.R.~.~.~.~.~.~.~.~.~.~.~.~.~.Z.n.n.n.n.n.n.n.b.b.p.2 2 2 I ! ! ! o.o.@.@.+.o.o.o.O.4 $ $ . ",
". $ $ D +.+.+.+.o.o.+.+.m @ $ i M.n.n.T.~.~.~.~.~.~.~.~.~.~.~.~.~.C.n.n.n.b.n.n.n.b.b.p.@ @ % I o.o.o.o.o.@.o.o.o.o.! O.4 $ $ @ ",
". $ @ D @.o.o.+.+.! ! ! Z e e k B.N.N.T.~.~.~.~.~.~.~.~.~.~.~.~.~.C.n.n.n.n.n.n.n.n.b.p.# # $ I o.o.+.o.o.@.+.+.o.o.o.@.4 $ $ @ ",
". % $ D @.+.o.+.Q , > > e.Q.Q.Q.~.~.~.~.~.~.~.~.~.~.Z.N.N.N.n.n.n.n.n.n.n.n.n.n.g.=.f.t.# @ % I o.+.@.o.o.@.+.+.o.o.o.O.4 $ $ . ",
". $ $ D +.+.o.+.Q * @ $ L.~.~.~.~.~.~.~.~.~.~.~.~.~.C.n.n.n.n.n.n.n.n.n.n.n.n.n.g.=.f.t.# # % I o.o.o.o.o.o.o.o.o.o.! O.4 $ $ . ",
". $ $ D +.+.o.+.Q * $ $ P.~.~.~.~.~.~.~.~.~.~.~.~.~.C.n.n.n.n.n.n.n.n.n.n.n.n.n.h.s.s.r.4 < , U o.o.+.o.o.+.+.o.o.o.! O.4 $ $ o ",
". % $ D +.+.+.+.Q * @ $ z.V.V.V.V.V.V.V.V.V.V.V.V.V.n.n.n.n.n.n.n.n.n.n.b.f.f.f.N : : 9 -.%.! o.o.o.@.o.o.+.+.+.o.o.! O.4 $ $ . ",
". % @ D +.+.+.o.Q * @ $ i.b.b.b.b.n.n.n.n.n.n.n.n.n.n.n.n.n.n.n.n.n.n.b.b.f.f.g.N # # 5 ! o.o.o.o.o.+.o.o.+.+.o.o.o.! O.4 $ $ . ",
". $ $ D +.o.o.o.Q * $ $ w.b.n.n.n.n.n.n.n.n.n.n.n.n.n.n.n.n.n.n.n.n.n.n.n.g.g.j.B # % 5 ! o.o.o.o.o.+.o.o.+.o.o.o.o.! +.3 $ $ . ",
". $ $ D o.o.o.o.Q * @ $ r a a / M.n.n.n.n.n.n.n.n.n.n.n.n.b.f.f.f.| d d d u u u U Q Q Q o.o.o.o.o.@.@.+.@.+.+.o.o.o.! O.4 $ $ . ",
". $ @ D +.o.o.o.Q * $ $ $ % % p M.n.n.n.n.n.n.n.n.n.n.n.b.b.=.=.=.P % % % % % % U o.o.o.o.+.o.o.o.;.1.1.1.+.@.+.o.o.! O.4 $ $ . ",
". $ $ D +.o.o.+.Q * $ % % % % p m.n.n.n.n.n.n.n.n.n.n.n.n.b.f.f.f.P % % % % # % U o.o.o.o.o.o.o.+.;.<.,.,.+.+.o.o.o.o.O.4 $ $ @ ",
". $ $ D @.o.o.o.! A A A 5 % $ 1 7.7.7.7.7.7.7.7.7.7.7.7.7.] ' _ _ V A A A A A A Q o.o.o.o.o.o.o.o.;.<.,.,.o.+.o.o.o.o.O.4 $ $ . ",
". % @ D @.o.o.o.o.! ! ! m $ $ $ $ $ $ @ $ $ $ $ $ $ $ $ $ $ @ $ $ S ~ o.o.o.o.o.o.o.o.o.o.o.o.o.o.@.#.#.#.+.+.o.o.o.! +.3 $ $ . ",
". $ $ D +.o.! ! o.! ! ! m $ $ $ $ % % $ % % % % $ % % $ $ $ $ $ $ S o.o.o.o.o.o.o.o.o.o.o.o.o.o.o.o.o.o.o.o.o.o.o.! ! o.3 $ $ O ",
". $ $ D +.o.o.o.o.o.o.o.I x x x x x x x x x x x x x x x x x x x x Y o.o.o.o.o.o.o.o.o.o.o.o.o.o.o.o.+.o.o.o.o.o.o.o.o.o., $ $ . ",
". % $ l I I I I I I I I I I I I G G I S S I I I I S G I I G G G G G I I I I I I I I I I I I I G G G I G G I I I I I I H ; $ $ . ",
". % @ l n b b b b b v b b b b b b b b b b b b b b b b b b b b b v v b b b b b b b b b b b b b v v b b b b b b b b b b n - $ $ . ",
". $ $ 7 b b b b b b b b b b b b b v b b b b b b b v v b v b v v b v b b b b b b b b b b b b b v v v b v v b b b b b b b - $ $ . ",
". $ @ 6 z c z z c c c c c c c c c c c c z c c z c z z c c c c c c c c c c c c z c c c c c z c c c c z c c z z c z z z c & $ $ . ",
". $ @ $ % % % % % % % % % % % % % % % % % % % % % % % % % % % % % % % % % % % % % % % % % % % % % % % $ $ % % % % % % % $ $ $ . ",
". $ $ $ $ $ $ $ $ $ $ $ $ $ $ $ $ $ $ $ $ $ $ $ $ $ $ $ $ $ $ $ $ $ $ $ $ $ $ $ $ $ $ $ $ $ $ $ @ $ $ @ $ $ $ $ $ $ $ $ $ $ $ . ",
"  + X X X X X + + + + + X X X X X X X X X X + + X X X X X X X X X X X X + X X X + X X X X X X X X X X X X + + + + X X + X X + . "
};
