/* XPM */
static const char *hero[] = {
/* columns rows colors chars-per-pixel */
"64 64 217 2 ",
"   c #230A06",
".  c #2D0E06",
"X  c #2C0F08",
"o  c #340E07",
"O  c #3C0F07",
"+  c #350E08",
"@  c #390F08",
"#  c #2F1007",
"$  c #2D1009",
"%  c #341007",
"&  c #3B1107",
"*  c #351108",
"=  c #391209",
"-  c #3D1B0A",
";  c #420F07",
":  c #4E0E05",
">  c #431007",
",  c #4B1107",
"<  c #421408",
"1  c #461809",
"2  c #4D1B09",
"3  c #541306",
"4  c #5C1506",
"5  c #571A09",
"6  c #521E0A",
"7  c #631706",
"8  c #661807",
"9  c #661A07",
"0  c #6C1A06",
"q  c #6C1E08",
"w  c #741B06",
"e  c #7C1E06",
"r  c #721F08",
"t  c #7C1E08",
"y  c #43220B",
"u  c #4B230B",
"i  c #55260C",
"p  c #5D230B",
"a  c #5A3016",
"s  c #672107",
"d  c #64250B",
"f  c #6C240A",
"g  c #64290B",
"h  c #6A2C0C",
"j  c #732007",
"k  c #7D2007",
"l  c #732409",
"z  c #7C2408",
"x  c #712E0D",
"c  c #7D2B0A",
"v  c #75310D",
"b  c #7A340E",
"n  c #6B3510",
"m  c #733B13",
"M  c #773B13",
"N  c #5A3024",
"B  c #5F4016",
"V  c #64471A",
"C  c #784C19",
"Z  c #7B561E",
"A  c #775C24",
"S  c #811F07",
"D  c #842107",
"F  c #8B2406",
"G  c #852709",
"H  c #832C09",
"J  c #8D2C09",
"K  c #922706",
"L  c #952907",
"P  c #9D2C07",
"I  c #952D09",
"U  c #9D2E08",
"Y  c #83340D",
"T  c #8E330C",
"R  c #853A0F",
"E  c #8A3B0F",
"W  c #94360C",
"Q  c #9C340B",
"!  c #943A0E",
"~  c #99380D",
"^  c #873C11",
"/  c #8B3C10",
"(  c #913F11",
")  c #9F3F10",
"_  c #A12E07",
"`  c #A12F08",
"'  c #A33209",
"]  c #AA330A",
"[  c #A5390C",
"{  c #AA390C",
"}  c #8C4A16",
"|  c #814D1A",
" . c #944213",
".. c #9D4512",
"X. c #974913",
"o. c #994B13",
"O. c #84521D",
"+. c #8C5A1D",
"@. c #9E551C",
"#. c #975A1C",
"$. c #A8410F",
"%. c #A34210",
"&. c #A34914",
"*. c #AB4D15",
"=. c #B44511",
"-. c #B34E14",
";. c #B94B13",
":. c #AA561C",
">. c #B55216",
",. c #BE5417",
"<. c #B5551C",
"1. c #BD5619",
"2. c #B35C1D",
"3. c #BA591E",
"4. c #AE621F",
"5. c #825E21",
"6. c #895A21",
"7. c #925A20",
"8. c #926424",
"9. c #9B6424",
"0. c #946C26",
"q. c #9F6C28",
"w. c #937028",
"e. c #A46422",
"r. c #A86925",
"t. c #AB6A25",
"y. c #B46B26",
"u. c #B86925",
"i. c #BD6B26",
"p. c #A3732A",
"a. c #A5752A",
"s. c #AB752A",
"d. c #B77329",
"f. c #C04F15",
"g. c #C15617",
"h. c #C55A17",
"j. c #C15718",
"k. c #C85719",
"l. c #C35919",
"z. c #C95B19",
"x. c #C7601C",
"c. c #C9631D",
"v. c #CE691F",
"b. c #D3631D",
"n. c #D36A1F",
"m. c #C56923",
"M. c #CE6920",
"N. c #D26D22",
"B. c #D26E22",
"V. c #C57228",
"C. c #C3752A",
"Z. c #C47C2E",
"A. c #CC7C2D",
"S. c #D67223",
"D. c #D57124",
"F. c #D67324",
"G. c #D97426",
"H. c #D47628",
"J. c #DA7429",
"K. c #DB752A",
"L. c #DC7529",
"P. c #D37B2C",
"I. c #D67F2D",
"U. c #D57F2F",
"Y. c #DE7A2C",
"T. c #CB6F38",
"R. c #C97E30",
"E. c #E47B2B",
"W. c #E27B2C",
"Q. c #E67F2F",
"!. c #9F7773",
"~. c #A27D7A",
"^. c #BB8231",
"/. c #C0802E",
"(. c #C9822F",
"). c #D6802F",
"_. c #D6842F",
"`. c #CA8532",
"'. c #C38B34",
"]. c #CD8936",
"[. c #D68430",
"{. c #D78934",
"}. c #DA8A36",
"|. c #D89639",
" X c #DD9539",
".X c #E3822E",
"XX c #E7802F",
"oX c #E8812F",
"OX c #E78130",
"+X c #E48632",
"@X c #E88130",
"#X c #EB8631",
"$X c #E68D36",
"%X c #EC8B34",
"&X c #E88E38",
"*X c #F18E36",
"=X c #F28F38",
"-X c #E79036",
";X c #EC9339",
":X c #ED9B3D",
">X c #F29137",
",X c #F5953A",
"<X c #F69A3D",
"1X c #F89B3E",
"2X c #F1A03F",
"3X c #A38F7D",
"4X c #E0934B",
"5X c #F89E40",
"6X c #E7A040",
"7X c #F1A140",
"8X c #F1A56D",
"9X c #F2A871",
"0X c #8D8887",
"qX c #ECE5E4",
"wX c #F6EFED",
"eX c #F8F5F4",
"rX c #FEFDFD",
/* pixels */
"  . . . . . . . . . . . . . . . . . . . . . . . . . . . . . . . . . . . . . . . . . . . . . . . . . . . . . . . . . . . . . . . ",
". * % % * * * * * * * * * * * * % % * * * * * * * * % * * % % % % * * * * % % * * * * * * * * % % % * % % * * * * * * * * * * . ",
". * % * * * * * * * * * * * * * * * * * * * * * * * * * * * * * * * * * * * * * * * * * * * * * * * * * * * * * * * * * % % * . ",
". * * 9.U.).).U.U.).).).U.).U.).).U.U.U.[.U.U.U.U.U.U.U.U.U.U.U.U.U.).U.U.).).).U.U.U.U.U.).U.U.U.U.U.U.U.U.U.U.U.U.U._.m * * . ",
". * * t.XXOXOXOXOXOXOX@XOXOXOXOXoXoXOXOX@XOXXXXXOXOXoX@XOX@XoXoXoXoXOXOXOXoXXX@XOXOXOXOXOXXXOXoX@X@XOXoXXXOXOXOXXXOXXX$XM * * % ",
". * * t.OXOXOXXXXXXXOXOXXXOXOXOXXXXXXXXXOXXXXXXXXXXXXXXXXXXXXXXXQ.Q.XXXXXXoXXXOXXXXXXXXXXXQ.XXQ.XXXXXXXXQ.Q.Q.Q.Q.Q.XX+Xm * * . ",
". * % e.K.K.K.K.K.K.K.K.K.K.K.K.K.K.K.K.K.K.K.K.K.K.L.K.K.K.L.K.L.L.K.K.K.L.K.K.K.K.K.K.K.K.K.L.K.K.K.K.K.K.K.K.K.K.K.Y.m * * . ",
". * % o.j.,.,.,.,.,.,.,.,.,.,.,.,.,.,.,.,.,.,.,.,.,.,.,.,.,.,.g.,.,.,.,.,.,.,.,.,.,.g.,.,.,.,.,.,.,.,.,.,.,.,.,.,.,.,.z.h * * . ",
". * * X.j.j.g.,.g.g.,.g.g.g.g.j.g.g.g.g.j.g.g.g.g.g.g.g.g.g.g.g.g.g.g.g.g.g.g.g.g.g.g.g.g.,.g.g.g.g.,.g.g.g.,.,.g.,.,.l.g * * . ",
". * % X.j.g.g.,.g.,.x.c.c.x.,.g.g.g.g.g.j.g.g.g.g.g.g.,.x.c.c.x.g.g.g.g.g.g.g.g.g.g.g.g.g.g.g.g.g.x.c.c.c.,.,.g.g.g.,.l.g * * . ",
". * % X.j.,.g.g.g.,.B.F.F.B.,.g.g.g.g.g.j.g.g.g.g.g.g.,.B.S.S.S.,.g.g.g.g.g.g.g.g.g.g.g.g.g.g.g.g.B.F.S.B.,.g.g.g.g.g.l.g * * . ",
". * % X.j.g.g.g.g.,.B.F.F.B.g.j.g.g.g.j.j.g.g.g.g.g.g.,.B.S.S.S.,.g.g.g.g.g.g.g.g.g.g.g.g.,.g.g.,.B.F.S.B.g.g.g.g.g.g.l.g * % . ",
". * % X.g.g.g.g.g.g.M.B.B.v.,.,.g.l.l.l.l.j.g.g.j.g.g.g.M.B.B.B.g.g.g.g.g.g.g.l.l.l.l.g.g.,.g.g.,.M.B.B.B.g.g.g.g.g.g.l.g % % . ",
". * % X.g.g.g.g.g.g.,.,.,.,.,.,.,.v.G.F.F.c.g.g.g.g.g.g.,.,.,.,.g.g.g.g.g.g.l.G.F.F.c.g.g.g.g.g.g.g.g.g.g.j.j.j.g.g.g.l.g * % . ",
". * % X.g.g.g.g.g.g.g.g.g.g.g.g.,.v.F.F.F.c.j.g.g.j.g.g./ R E E E E / R E E R :.S.F.c.g.g.g.g.g.g.g.g.g.g.g.g.g.g.g.g.l.g * * # ",
". * % X.g.g.g.g.g.g.j.g.g.g.g.g.,.v.F.F.G.c.g.g.g.g.g.g.2 * * * * % * * * * * m F.F.c.g.g.g.g.g.g.g.g.g.g.j.g.g.g.g.g.h.g * * . ",
". * % X.,.g.g.g.g.g.j.j.g.j.j.j.g.g.l.l.l.j.g.g.j.>.R Y < * q k k k k w r 3 * u ^ ^ ,.g.g.g.g.g.g.g.g.g.g.j.g.j.g.g.,.h.g * * o ",
". * % X.g.g.g.g.g.g.,.g.g.g.g.j.g.g.g.g.j.g.g.g.g.-.% * = = D L L L L F F 9 @ = * - ,.g.g.g.g.g.g.g.g.g.g.j.g.g.g.g.,.h.g * * o ",
". * % X.g.g.g.g.g.g.,.g.g.j.j.j.g.g.g.g.j.g.g.*.Y b & @ w D U ' ' ' ' L F D r 9 = = Y R *.g.g.g.g.g.g.g.g.j.g.g.g.g.,.h.g * * % ",
". * % X.j.j.g.g.g.,.B.B.B.B.,.j.g.g.j.g.j.g.g...* + @ @ K P ' { { { ] P K K F w & = % * &.g.g.g.g.v.B.B.B.j.j.g.h.g.,.l.g * * . ",
". * % o.l.g.j.j.g.,.F.F.F.F.,.j.g.g.j.j.j.j.j...= > k k L P ' ' ' ' ' P L K K F w r + * &.g.g.g.g.M.F.F.S.j.j.j.g.g.g.l.g * * . ",
". * % o.l.j.j.j.g.,.F.F.F.F.,.j.g.g.j.j.j.j.j...= 3 L L P P P P P P P P L L K K K F @ = &.j.g.g.g.M.F.F.S.j.j.j.g.j.g.l.g * * % ",
". * % o.l.j.j.g.g.g.c.c.c.c.,.j.g.g.j.j.j.( b h & 3 L L K K u.P.P.P.P.U K K L L L I d.d.} b  .g.g.l.c.c.c.j.j.j.g.g.g.l.g % * . ",
". * % o.l.j.j.g.g.g.j.j.j.j.j.j.g.g.j.j.j.h % + @ 3 L L D D (.,X,X,X<XK F K L P P [ >X*X| % v g.g.j.j.g.h.j.l.l.g.g.g.l.g * * . ",
". * % X.j.j.g.g.g.g.j.j.g.j.j.j.g.g.j.g.j.h % C d.C.P.P. .F V.W.OX,X<XP.A.A.P.P.P.U.,X>XO.% v g.g.g.g.g.g.j.j.j.h.g.h.l.g * * % ",
". * % X.j.j.g.j.g.g.j.j.j.j.j.j.g.g.j.j.j.h % 9.*X*X,X,X@.F ,.b.K.,X,X,X<X,X,X,X,X,X,X,XO.% v g.g.g.g.g.g.j.j.g.h.h.g.h.g * * . ",
". * % X.l.j.j.j.g.g.j.j.j.l.l.j.g.g.,.( ( i = #.W..X,X,X:.F *.l.T.8X8X}.}.}.}.4X9X8X}.}.C * v g.g.g.g.g.g.j.j.j.h.h.g.l.g * * . ",
". * % X.l.j.j.j.j.j.j.j.j.l.l.j.g.g.,.= * * & c =.>.>X>X@.D D F ~.rXrXN + + @ 0XrXeXo + + * v g.g.g.j.g.g.l.j.l.j.g.g.l.g % * . ",
". * % X.j.j.j.j.j.g.j.j.j.l.*./ E E ^ = * * & c =.>.>X,X:.Q J F !.eXwXa + V 5.3XqXqXZ 5.i * p E E ,.j.g.l.c.c.c.l.j.g.l.g * * . ",
". * % X.l.j.g.j.j.g.j.j.j.x.} * * * + + * @ @ c ;.>.,X,XM.g.[ F T j.j.i + t.*XU.F D ;X=XO.+ * * - ,.j.g.l.F.F.F.c.j.g.l.g * * . ",
". * * X.l.j.j.j.j.j.j.j. . .n + 3 j r r r 9 4 c $.*.+X#Xc.k.u.u.i.P.P.t.9.Z.>X+Xu.u.;X>Xd.9.Z * &  . .>.l.F.F.F.c.j.g.l.g % * . ",
". * % X.l.j.j.j.j.g.j.j.6 * * = w _ _ _ P F e 0 ; g z.z.z.z.+X,X,X1X1X<X1X<X1X1X<X1X1X1X1X<X^.* + * * *.l.F.B.B.x.j.g.l.g * * . ",
". * % o.l.j.j.j.j.j.j.,.6 * 9 j F _ _ _ P F e w 4 f -.>.H.K.%X<X1X1X1X1X1X<X1X1X<X1X1X1X1X1X{.q.0.+ * &.g.l.j.l.j.j.g.h.g * * . ",
". * % o.l.j.j.j.j.g.j.,.6 = F _ _ ` _ _ ` K S e w w O ;  X,X<X<X1X1X1X1X1X1X1X1X<X1X1X1X1X1X<X<X:X+ * *.g.l.j.j.j.j.g.h.g * * . ",
". * % X.l.j.,.,.,.>.&.&.f q K _ _ ` _ _ U F S e w w O ;  X,X<X<X<X:X:X:X:X:X:X:X:X:X:X:X:X:X:X:X X+ * E &.*.j.j.j.g.g.h.g * * . ",
". * % o.l.j.l.F.F.2.* * U U ` _ _ ` ` _ P K S e e w ; ;  X,X<X<X;X] ] ] ] ] ] ] ] ] ] ] ] ] ' ' ` * * % * b j.g.g.g.g.h.g * * . ",
". * % o.l.l.x.F.F.2.* * U ` ' _ _ ` ` _ ` K e e e w 3 , ].-X:X<X;X3.3.3.3.3.3.3.3.3.3.3.3.3.<.<.:.* * * * b j.j.j.j.,.h.g * * o ",
". * % o.l.l.x.F.S.2.* * U ` ' ` _ ` ` _ U F e e w w w w 3 , Z.,X,X1X5X1X1X5X1X1X1X1X1X5X1X1X<X<X6X+ = * * b l.j.j.g.g.l.g * * . ",
". * * X.l.j.l.1.1.&., , P _ ` _ _ ` _ L L D w w e e w w 7 4 d.$X&X<X<X1X1X1X1X1X1X1X1X1X1X1X<X:X|.; > = * b l.l.g.g.g.h.g * * % ",
". * % X.l.j.j.x * f P ` _ ` ` _ _ U U w w 0 0 w K K L K K F w : +.#X#X<X1X1X1X1X1X1X1X1X1X1X^.; : w w 4 = b l.j.g.g.g.l.g * * . ",
". * % X.l.g.g.x * r P ` _ _ P P P U L w w 0 9 w F K U U I I G s +.-X-X<X7X7X2X<X2X2X2X<X<X<X^.3 4 w w 4 > v >.>.g.g.g.l.g * * o ",
". * % X.l.g.j.x * r P P P P F w w w w 0 9 4 , q U Q f.f.f.f.f.g.;.j l l l l l j l l f f f f z L K S e e w 9 & * >.g.g.h.g * * . ",
". * * X.j.j.,.x * q P P P P F e w w w 9 9 4 , q U Q g.g.g.f.f.g.;.H G G G H H c c z 0 0 w r G L L S S e t 0 = * >.g.,.h.g * * % ",
". * % X.l.g.g.x * q P P P P P P F w w ; > ; ; 4 S G g.g.g.g.g.g.k.k.z.z.k.k.k.g.g.g.3 3 K ' ' ` P D S e t w = * >.g.,.l.g * * % ",
". = * X.l.j.,.x * q P P P P P P K w w ; ; ; ; 4 S G g.g.k.g.g.k.k.k.l.k.k.k.k.g.g.g., , K ' ' ' P D D e t w & * ,.g.g.h.g * * . ",
". * * X.j.j.,.x * q F F U P P P K w w ; > ; ; 4 e e J I [ [ [ { $.k.k.k.g.=.[ [ [ Q , , K ' ' ' P D S e t w = * ,.g.,.h.g * * . ",
". * * X.j.j.g.x * 9 F D U P P L K w w ; > ; ; 4 w w S e U U U ' { g.g.g.g.=.' ' U L > , K _ ' ` P S S e t 0 = * >.g.,.h.g * * o ",
". = * X.j.j.,.x * 5.[.[.&.P P P 2.A.A.1 > ; ; 4 w w D S F F I P ` ' { { { ' P L D D > > w F F F F S e e t w = * >.g.g.h.g * * . ",
". = % X.j.j.,.x * 0.,X<X:.P P _ m.>X%Xu ; O ; 3 w w D D D D K P P P U P _ P L K e w > > w e D D D k k k k q & * >.g.,.h.g * * . ",
". * * X.j.g.,.v * 0.<X<X:X:X:X:X,X<X<X|.|.5.O 3 w w D D D S D F F F F F F F D S w w ; > 3 3 t.$X%X-X$X$X$X/.% * >.g.,.h.g * * . ",
". * * X.g.g.,.x * w.<X<X<X1X<X1X1X<X<X<X,X0.O 3 w w D D S S S S S S S S e e e w w w > > > O u.*X>X>X*X*X=X`.* * >.g.g.h.g * * . ",
". * % X.j.g.,.x * w.<X<X<X<X<X1X1X<X<X<X,X0.O 3 w w e w e e e e e e e w w w w w w w > > t.C.[.*X*X*X*X*X*X`.* % >.g.g.h.g * * . ",
". * * X.j.g.g.h * 0.<X<X<X<X<X<X<X<X<X<X,X0.; 3 w w w w w w w w w w w 9 9 9 0 w w w ; > A.%X%X*X*X*X*X*X%X`.* % >.g.g.h.g * * % ",
". * * X.l.g.g.h * +..X.X,X,X%X.X%X,X,Xs.a.C 9 0 w w w w 9 7 7 7 7 4 4 9 9 w w w w w > > A.#X#X%X%XY.Y.#X%X`.* % >.g.g.h.g * * . ",
". = % X.l.g.,.h * } n.n.>X>XW.n.Y.>X-Xu & 0 e e w w w w , > & O ; ; > 9 9 w S S S w > > A.#X#X#X#Xb.n.oX%X`.* % >.g.,.h.g * * . ",
". * * X.j.g.,.../ o.@.@.s.s.t.@.e.s.a.f 0 k D S w w 9 9 > & p b g O & w w e S S D e > & #.t.m.F.K.E.E.#X%X(.* % >.,.,.g.g * * # ",
". * * X.j.g.g.,.,...* * * * * % + @ O D D F F S w 0 O @ @ + / g...@ & D S D D S S e ; O O & ! g.z.#X#X%X%X(.* % >.g.,.g.p * * . ",
". = * Y %.%.%.%.%.E d d d d 2 * B 8.8.t.t.y.y.t.t.t.- + 5 d Y %.Y = - 4.:.y.y.y.y.y.p.p.a @ v ..o.y.y.y.y.9.d d ) %.%.%.5 * * . ",
". = % Y ~ ~ ~ ~ ~ ~ ~ ~ ~ ~ d * w.<X<X1X<X<X1X1X1X<X1 * Y ~ Q ~ c * y XXW.oX*X*X*X*X*X*XC @ * * % * * * * p ~ ~ ~ ~ ~ ~ 6 * * . ",
". * * c ~ ~ ~ ~ ~ ~ ~ ~ H H 6.0.^.<X<X1X<X;X%X;X<X<X0.8.M H T Q c * y XXE.E.Q.#X*X*X*X*Xt.7.C * = f f f f c ~ ~ ~ ~ ~ ~ 6 * * . ",
". * % x T W T T W T W T < * '.<X<X<X<X<X<XY.b.Y.<X<X<X<XA * f W l * y oXE.B.b.K.%X*X*X*XoXQ.y.* & T T W W T T T T T T W 2 * * . ",
". * % * = = = = = = = = X * p.].].].].].].i.2.i.].].].].V * * = o * - V.i.2.<.u.A.A.R.R.C.V.9.* . * = * * = = = = = = = * * * . ",
". * * * * * * * * * * * X * * * * * * * * * * * * * * * * * % * . + * * * * * * * * * * * * * * . * * % * * * * * * * * * * * . ",
"  $ X X X X X $ $ $ $ % $ % % * * * * * * * * * * % % % * % $ X . % % % % % * * * * * * * * * * $ X X X X $ $ $ $ X X $ X X $ . "
};
