/* XPM */
static char * walls_xpm[] = {
"64 64 236 2",
"  	c #34404B",
". 	c #2C363F",
"+ 	c #343E47",
"@ 	c #364049",
"# 	c #37414A",
"$ 	c #303A44",
"% 	c #35424D",
"& 	c #29323B",
"* 	c #323D48",
"= 	c #303B45",
"- 	c #333E49",
"; 	c #333E48",
"> 	c #323E48",
", 	c #323D47",
"' 	c #313C47",
") 	c #303B46",
"! 	c #2E3943",
"~ 	c #38424B",
"{ 	c #37434F",
"] 	c #2A333C",
"^ 	c #323E49",
"/ 	c #2F3B45",
"( 	c #2D3740",
"_ 	c #35404A",
": 	c #2E3841",
"< 	c #36424D",
"[ 	c #374450",
"} 	c #2A343D",
"| 	c #333F4A",
"1 	c #313D47",
"2 	c #313D48",
"3 	c #343F49",
"4 	c #2C3640",
"5 	c #36424E",
"6 	c #333F49",
"7 	c #2D3942",
"8 	c #2C3740",
"9 	c #2D3841",
"0 	c #353E47",
"a 	c #323C45",
"b 	c #2F3A44",
"c 	c #2D3842",
"d 	c #2F3A45",
"e 	c #2D3741",
"f 	c #343F4A",
"g 	c #2E3842",
"h 	c #2D3742",
"i 	c #313B46",
"j 	c #303A45",
"k 	c #2E3942",
"l 	c #343E48",
"m 	c #333D46",
"n 	c #2F3841",
"o 	c #2D363E",
"p 	c #2E3740",
"q 	c #2E373F",
"r 	c #2D373F",
"s 	c #2C363E",
"t 	c #2F3A43",
"u 	c #313C45",
"v 	c #2B353F",
"w 	c #303B44",
"x 	c #303C46",
"y 	c #313B45",
"z 	c #313D46",
"A 	c #2E3944",
"B 	c #2F3943",
"C 	c #323C47",
"D 	c #37434E",
"E 	c #38444F",
"F 	c #384450",
"G 	c #38444E",
"H 	c #3B454F",
"I 	c #3C464F",
"J 	c #3C4650",
"K 	c #3E4851",
"L 	c #3D4750",
"M 	c #3D4751",
"N 	c #3C4751",
"O 	c #323D49",
"P 	c #36414D",
"Q 	c #35404C",
"R 	c #343F4B",
"S 	c #35404B",
"T 	c #35414C",
"U 	c #38434E",
"V 	c #394550",
"W 	c #39454E",
"X 	c #3B4650",
"Y 	c #3A444E",
"Z 	c #38434D",
"` 	c #36414B",
" .	c #36424C",
"..	c #37424C",
"+.	c #3A454F",
"@.	c #3C4651",
"#.	c #313C48",
"$.	c #333E4A",
"%.	c #353F48",
"&.	c #333D47",
"*.	c #323C46",
"=.	c #353F4A",
"-.	c #2C353F",
";.	c #38414A",
">.	c #353D47",
",.	c #323B45",
"'.	c #353F49",
").	c #343D46",
"!.	c #2A353D",
"~.	c #36434E",
"{.	c #36434F",
"].	c #323C48",
"^.	c #2B353E",
"/.	c #2C3742",
"(.	c #313B47",
"_.	c #313B44",
":.	c #313943",
"<.	c #313A42",
"[.	c #313A43",
"}.	c #2F3944",
"|.	c #2C3741",
"1.	c #2B363F",
"2.	c #303C47",
"3.	c #2E3A43",
"4.	c #333D48",
"5.	c #36414C",
"6.	c #313C46",
"7.	c #2F3B44",
"8.	c #333C47",
"9.	c #2E3843",
"0.	c #3C4852",
"a.	c #3F4B55",
"b.	c #3D4954",
"c.	c #3E4A55",
"d.	c #3D4853",
"e.	c #3F4A55",
"f.	c #404B56",
"g.	c #404C56",
"h.	c #3F4B56",
"i.	c #35414D",
"j.	c #303B47",
"k.	c #333F4B",
"l.	c #2A353F",
"m.	c #3A4651",
"n.	c #434F5A",
"o.	c #2F3B46",
"p.	c #2F3A46",
"q.	c #2C3641",
"r.	c #2B3640",
"s.	c #37414C",
"t.	c #37424B",
"u.	c #3A454E",
"v.	c #3A444D",
"w.	c #39434C",
"x.	c #37434C",
"y.	c #39444D",
"z.	c #38434C",
"A.	c #36404C",
"B.	c #2F3840",
"C.	c #2D363F",
"D.	c #303942",
"E.	c #38434F",
"F.	c #303A43",
"G.	c #313A44",
"H.	c #2F3942",
"I.	c #39454F",
"J.	c #394551",
"K.	c #39444E",
"L.	c #2B353D",
"M.	c #37424E",
"N.	c #37424D",
"O.	c #36404A",
"P.	c #3B434D",
"Q.	c #3B454E",
"R.	c #3D4851",
"S.	c #303C48",
"T.	c #3A4551",
"U.	c #3B4752",
"V.	c #343C46",
"W.	c #333B45",
"X.	c #3C4853",
"Y.	c #303A42",
"Z.	c #34404C",
"`.	c #34414C",
" +	c #34404A",
".+	c #2A343E",
"++	c #2A353E",
"@+	c #3B4651",
"#+	c #38424C",
"$+	c #3A4550",
"%+	c #2E3A44",
"&+	c #3A4652",
"*+	c #363E48",
"=+	c #303A46",
"-+	c #37414B",
";+	c #2C353E",
">+	c #2B343D",
",+	c #2B343E",
"'+	c #282F37",
")+	c #283039",
"!+	c #2A343C",
"~+	c #2A333B",
"{+	c #29333B",
"]+	c #29333C",
"^+	c #29343C",
"/+	c #3D4953",
"(+	c #3E4852",
"_+	c #3E4A54",
":+	c #3F4A54",
"<+	c #3D4852",
"[+	c #3E4953",
"}+	c #394450",
"|+	c #323A44",
"1+	c #333C44",
"2+	c #44505B",
"3+	c #3E4954",
"4+	c #394652",
"5+	c #37444F",
"6+	c #2C3841",
"7+	c #414D58",
"8+	c #394651",
"9+	c #3C4954",
"0+	c #3A4753",
"a+	c #3B4753",
"b+	c #3B4854",
"c+	c #3B4853",
"d+	c #3A4752",
"e+	c #384551",
"f+	c #384550",
"g+	c #313E48",
"h+	c #343D47",
"i+	c #2D3843",
"j+	c #2D3943",
"k+	c #2E3741",
"l+	c #39434D",
"m+	c #29323C",
"        . + @ @ @ @ @ @ @ @ @ @ @ @ @ @ @ @ @ # $                       % & * = - - - ; > , , , , ' ) !                         ",
"        . + @ @ @ @ @ @ @ @ @ @ @ @ @ @ @ @ @ ~ $                       { ] ^ > ; ; ; - * > ^ > * * ^ /                         ",
"        ( + @ _ @ @ @ @ @ @ @ @ @ @ @ @ @ @ @ ~ : <                     [ } - - | | | | | - - > , 1 2 !                         ",
"      < ( 3 @ @ @ @ @ @ @ @ @ @ @ @ @ @ @ @ @ # 4 <                     5 ( ' ^ | | | 6 - 2 = 1 > ; > 7                         ",
"| | | | 8 9 3 + 0 0 0 0 0 0 0 0 + + + + + + + a 8 | | | | | | | | | 2 , b . c ! b = d ! e c 6     % ( 9             | | | f | f ",
"' d ' g h i j j k g l ; l m n o p q q q r r o s . 8 e e e e e e e 9 t u $ : j 9 9 9 ( v e = b w x y = z b t $ A . e h : 8 B C d ",
"        | | D D { { E E E F D c G H H I I I J I H K L L J M N O < P F E Q R S | T U V 8 V W X H Y Z Y ` Z 6  .` .. .+.@.e T < T ",
"^ O 2 2 2 #.#.#.#.2 2 O $.^   e I %.&.&.&.*.*.*.*.&.+ + + + + =.| O $.^ ^ $.| | ^ #.| -.l %.3 3 l ; ; ; , , , , , , *.*.9   2 ^ ",
"^ $.| | | | | $.^ ^ ^ ^ ^ ^ ' e ;.>.+ + + + + + + l %.%.+ &.&.,.| $.$.| | | | | | | $.. &.@ _ _ _ _ =.3 l + + + %.%.%.'.c   ^ ^ ",
"| | | | | | | | | $.$.^ ^ $.' c @ + + + + + + + l l l %.%.l l m 6 | | | R             v &.%.3 %.%.%.%.%.%.%.%.%.@ @ %._ c | ^ | ",
"| | | | R           | | | | 2 c ).%.%.%.%.%.%.%.%.%.%.%.%.@ @ ; >                     ( + %.'.@ @ @ @ @ @ @ '.'.@ @ _ _ c | | R ",
"                            2 h m @ @ @ @ @ @ @ @ @ @ @ @ @ @ m >                     4 &.@ @ @ @ @ @ @ @ @ @ @ @ @ _ _ h | $.  ",
"                            2 !.a @ @ @ @ @ @ @ @ @ @ @ @ @ @ &.^                   ~.v &.@ @ @ @ @ @ @ @ @ @ @ @ @ _ _ h |     ",
"                            ^ !.m @ @ @ @ @ @ @ @ @ @ @ @ @ _ &.^                   {.& &.@ @ @ @ @ @ @ @ _ _ _ _ _ _ ; h R     ",
"                      |     ^ !., @ @ @ @ @ @ @ @ @ _ _ _ _ _ ].^.T < T               ] - %.@ @ @ @ _ _ _ _ _ _ _ _ _ l /.| R   ",
"].2 2 O ].2 #.(.j ' ' ' O ].e !.) _.:.<.[.[._._._.y y y y y ) }.|.* 1.2.9 7 7 3.3.) ) 4 g *.4.4.4.4.4.4.4.4.4.4., 4.4.i |.g b i ",
"5.  6 i y 4 4 ! t $ f 6 ^ ) = 6.k b C |.' 1 7.t ^.B ; - y = = ) f - 8.. ( e ! f _ _ < P < <  .< < < < < e 9.j d d f f E D E E D ",
"^ ^ ^ ^ | 1.| 0.a.b.c.b.d.e.f.g.f.g.h.X S g.a.h.e   i.2.j.2.O k.T Q R | | 2 , , ; 3 l ; ; 3 l &., , &._ !   R | ^ ^ ^ ^ $.^ ^ ^ ",
"^     R | l.m.  3 3 _ _ _ _ _ _ _ 3 %.%.%.3 ; n.g ^ #.o.p.p.p.o.2.#.#.#.O ^ l &.3 3 3 3 '.3 3 ; ; ; *.; ! ^   | |         $.^ ^ ",
"| | | | $.q.< _ @ %.%.%.%.%.%.%.%.%.'.@ _ _ _ D g ^ | | | | | | | | ^ O ^ | , 3 3 3 3 %.%.%.%.%.%.%.l _ b * |   R R | | ^ ^ ^ ^ ",
"R         r.^ '.# @ @ @ @ @ @ @ _ _ '.'.3 =.s.  g ^                       | ^ %.%.'.@ @ @ @ @ @ @ @ '.@ ' O                     ",
"          v ^ _ ..~ # ~ ~ # t.t.t.# # _ _ _ .. .e ^                       ^ 2 _ @ @ @ @ @ @ @ @ @ @ @ @ ' ^                     ",
"          v ^ < u.v.v.v.v.v.w.w.~ ~ ~ ~ ......i.e ^                       ^ ! # @ @ @ @ @ @ @ @ @ @ @ x.' *                     ",
"          v ^    .y.w.w.w.w.z.~ ~ ~ ~ ....` ` m.( ^                       ^ c ` @ @ @ @ @ @ @ @ @ @ @ Z }.*                     ",
"#.b (.#.#.e b #.#.#.#.#.#.#.#.#.#.b #.#.#.#.A.2 4 * | 2 ^ 2 2 2 2 ^ ^ ^ x j 4 8 [.p B.o C.D.*.n *.*.*.#.h ' #.#.#.#.#.#.#.#.#.#.",
"E.4 9.! b t b $ F.G.[.G.G.G.H.: j ( ' { 5 E 5 F P D m.F T T T E.E.P } I.F J.V 5 D D D Z K.s.` L.! M.M.M.N.{ E.E.E.E.E.E.E.E.E.E.",
"| k ..O.&.%.v.+ P.Q.K I L J R.M Z |.T O j.j.j.j.j.o.j.S.o.2 O 2 2 { } m.T.E.| ^ O O O ^ | U.E ^.| $.2 #.#.2 ^ ^ ^ ^ $.$.$.$.^ ^ ",
"$.g # m V.V.m W.W.a y y y a m %.3 9.| 2 ^ | $.$.| | | $.| | ^ ^ ^   } X.$.2 2 O | ^ $.^ ^ 2   e ^ ^ ^ $.| | | | ^ $.$.^ ^ | | | ",
"| ! @ >.%.@ %.%.%.%.+ %.%.%.%.%.+ : $.| |   | | | | | | | | | | | - L.V | | $.| | | | | |     = | |                   | | |     ",
"  ! ~ @ @ @ @ @ @ @ @ @ @ @ @ @ @ H.*   R                     |   - L.    | R R     |       D ' |                               ",
"  }.# @ @ @ @ @ @ @ @ @ @ @ @ @ @ Y.*                               ^.%       Z.T T         ~.2.|                               ",
"  ) @ @ _.@ @ @ @ @ @ @ @ @ @ @ ~ H.-                             T ( T       `.T T         5 ' |                               ",
"  2.@ @ # @ @ @ @ @ @ @ @ @ @ @ # 8 ^                             i.( f                       ' k.                              ",
"| B l ).+ ).m &.m + + + + %.%.# %.^.^ - 5.N.T * * ^ ^ - - - - - * * ( * Q - * ' ' ' * -  +6.2 b Z.T     | | ^             ^ ^ ^ ",
"|.4 e h e 4 g . ^.} } } } ^..+.+} } } ++} } ++8 ^.} v e e e 4 . . . v ^.. 9 4 e ^.4 4 4 ( 4 4 4 4 9.c 4 4 4 4 4 4 |.|.|.|.|.q.q.",
"Z.5 5 5 { % / g 4 4 4 -.-.-.-.4 |.e e e e 4 4 4 -.4 } ' _ @+.._ Z #+'.O.l 3 '.$+. E { { F F E D 5 i.{ { { < < $   { S.j.$.< < < ",
"j.2.2.2.2.o.* b ! ! ! ! ! ! ! ! A b A A A ! ! ! %+d v D = $ $ a a a a y *.a a y } &+T $+I.< 2 j.#.O 2 2 O O     T p.#.#.2.o.o.o.",
"O O O O O O ^ b g b ! A A b b b b d d d d d b d / / 1.&.*.+ + l 3 3 m y a m m 6.++- O ^ $.$.^ ^ ^ ^ ^ ^ ^ O O 6.f #.#.O O O O O ",
"| | ^ O O O 2 b B B $ = = d o./ o.) = / / b b d b ' ++4.a m m + + + + + + + + l } ^ ^ ^ ^ ^ | | | | | $.| | | = ' ^ | | | | | | ",
"      | | | ' $ / d = b b b b b / o.d = ) = = / d 1 ^.l m m m &.+ + + + + %.>.*+} * $.^ $.|           R       = 2.| | R R R R   ",
"            ' d 1 = ' = x 6.6.2.' 2.' 6.6.x 6.x ) ^ ^.C m m %.%.%.%.%.%.%.%.%.%.^.- R R |                     x 1 | R           ",
"            2.=+1 6.O * ' ' ' = = = = 6.6.' 1 ' 2 6 e ; + '.@ @ @ %.%.%.%.%.%.%.^.-                           = o.              ",
"            t j.2 6., ) 6.6.x ' 2.1 1 x 6.' 2 1 * > A ; @ @ @ _ @ @ @ @ @ @ @ # ^.-                           B b               ",
"            ! ].> 1 6.' ) 6.6.6.6.6.6.) 6.6.2 * * | A - @ >.# @ @ @ @ @ @ @ @ -+L.^                           g 9               ",
"            ! =+- 2 , ' 2.1 , , ' 1 1 1 1 1 > * *   }.| _ @ @ + @ @ @ @ @ @ @ %.^.^                         T = (               ",
"| 2 '       k b ' #.O * #.#.* * = ' 6 | 2 =+) O R   9.. - l + _.+ + l l 3 l ; 9 ^.6.R               |   | - j ! } |             ",
"9.9.9./.e e v 1.;+>+,+'+)+!+>+v ~+{+^..+^..+!+4 ^.1.^.^.} ^.} } } } } 1.: ( n : ( ;+^.^.L.]+} !.++} } } } } } ^+!+]+. v 9.9./.9.",
"E D D E E E F F F F F F * F /+/+0.m.V V V V V V V V V V } ..Z Y Y R.(+X K.Z Z #+-+w.w._ N.++X _+:+:+_+<+f.f.[+d.U.h.| { D D D F ",
"#.2.#.2 2 2 2 O 2 2.2.$.| $.2 U.V #.V V P E.D V }+T.U.E.^.I |+|+a a a W.*.*.*.y y *.*.*.3 ++G O | | $.^ $.$.^ 2.2.m.^ 2.2.j.j.j.",
"| | $.^ ^ ^ $.| | ^ ^ O | ^ C #.2.2.2.2.j.j.j.#.#.O 2 U.^.#+1+m m m m W.m &.&.+ + m m m 3 c 2+| R i.%   T i.i.  k.0./ ^ ^ | | ^ ",
"      R | | | | | R   O | | 4.^ 2 #.#.2.#.#.2 ^ 2 2.2   . @ W.>.&.&.&.&.+ + + + + + &.&.O.F.U.T T % T i.i.< D ~.T E i |         ",
"                      O     4.| | ^ ^ O O O ^ | | | R   . # >.%.+ + + %.%.'.%.%.%.%.l + -+. 3+< T T T < T D D T 4+< 8 |         ",
"                      ^ f   ; | $.| | | | |             ( -+%.@ @ @ @ @ @ @ @ @ @ @ @ @ ~ . 3+T < D D 5 D V F 5+{ b.6+          ",
"                      | '   _                           ( # @ @ @ @ @ @ @ @ @ @ @ @ @ @ # . 7+U.5 < < < D 5+5+5 E c.c           ",
"                      R 6.                            i.e @ @ @ @ @ @ @ @ @ @ @ @ @ @ @ -+. X.8+{ F { { 5+{ { F 8+U.8           ",
"                    T | b T                           { e ..@ @ @ @ @ @ @ @ @ @ @ @ @ @ # C.2 9+0+a+J.J.J.m.U.m.8+f } %         ",
"Z.      Z.2 2 2 | - | | 7 5+                          { ( &.@ @ @ @ @ @ @ @ @ @ @ w.~ # + C.| m.a+b+b+c+d+e+m.d+f+< . 2 <       ",
"o./ / ) 1 2 ^ g+^ ^ 2.1 g   E D < D < T         < < %   q.= &.+ m m + &.&.&.&.&., , &.h+&.^.4 R , = = = ^ * > * * !+} / 2.2.o.x ",
". ( 9 : ( i+H.F.B B B j+4 }.B B B B B $ k+( ( ^.^.^.1.,+. ;+^.,+>+} } } } !+& 9 7 8 L.g b !.! b L.j } ]+]+!+!+!+L.} } !+^.s . . ",
"F F { [ 8 K.O._ _ _ ` Z ~ O.O.-+O.O.O.l+l+# _ | k { i.T T D F V V V V V E !+c ! g ! g g b / / b b ! B x [ 5 { F F F 5+5+F F F F ",
"^ ^ | k.. %.&.&.+ m *.a y y y y y y y y _._.y _ f O 2 2 2 2 2 O ^ ^ ^ ^ * !+g b = = = = = = = = = ) d 6.^ 2 2 2 2 O O O O O O ^ ",
"|       ( %.%.%.l %.%.l l + + + + + + l + m &.@ ' O ^ ^ ^ ^ ^ ^ ^ ^ ^ ^ - !+B = = = = = = = = = = x 6.u ^ $.| | | $.^ $.| | | | ",
"| | | | ( + %.'.@ @ @ @ '.'.'.%.%.%.%.%.%.%.l %.=         | | | | |       & ) = = = = = ) x ) = = = / * | | | |   R | | | | | | ",
"        . + @ %.@ @ @ '.@ @ @ @ @ '.%.%.%.%.%.3 y                         m+x = = ' ' 1 1 1 1 1 1 ) = -                         "};
