/* XPM */
static const char *wall[] = {
/* columns rows colors chars-per-pixel */
"64 64 160 2 ",
"   c #250D07",
".  c #2D0E07",
"X  c #260C08",
"o  c #2E0F08",
"O  c #300F07",
"+  c #300F08",
"@  c #2F1009",
"#  c #331007",
"$  c #381207",
"%  c #361208",
"&  c #391209",
"*  c #5C1E07",
"=  c #541C08",
"-  c #5D1F09",
";  c #601F08",
":  c #6E2407",
">  c #642108",
",  c #6E2508",
"<  c #6B2A0B",
"1  c #702507",
"2  c #712608",
"3  c #752809",
"4  c #7A2B09",
"5  c #7C340C",
"6  c #764917",
"7  c #7B4810",
"8  c #7F5118",
"9  c #822D0A",
"0  c #84330C",
"q  c #8A340C",
"w  c #843A0D",
"e  c #8A3B0E",
"r  c #92340B",
"t  c #943B0E",
"y  c #9B3D0E",
"u  c #8A3E10",
"i  c #933F10",
"p  c #9E3F10",
"a  c #92400F",
"s  c #814714",
"d  c #834E14",
"f  c #924211",
"g  c #9B4411",
"h  c #944913",
"j  c #9A4C14",
"k  c #835116",
"l  c #8D5516",
"z  c #89571D",
"x  c #905516",
"c  c #9B5215",
"v  c #97571B",
"b  c #9F5619",
"n  c #975C1B",
"m  c #9C5D1C",
"M  c #A6400F",
"N  c #AB420F",
"B  c #A54210",
"V  c #AB4311",
"C  c #A54B14",
"Z  c #AC4B14",
"A  c #B04712",
"S  c #B44B14",
"D  c #B94E15",
"F  c #AD5316",
"G  c #AE5518",
"H  c #AD5A18",
"J  c #B25216",
"K  c #BC5216",
"L  c #B05619",
"P  c #BA5618",
"I  c #B25A19",
"U  c #8C6119",
"Y  c #92671C",
"T  c #97731F",
"R  c #A1611A",
"E  c #B3651D",
"W  c #B06A1F",
"Q  c #986821",
"!  c #9B7922",
"~  c #997228",
"^  c #B56C23",
"/  c #BA6E22",
"(  c #A67125",
")  c #AD7520",
"_  c #A77A24",
"`  c #AA7E24",
"'  c #AB7F2C",
"]  c #B77123",
"[  c #BA7224",
"{  c #B57C25",
"}  c #BC7B24",
"|  c #BE7D2A",
" . c #AC7D30",
".. c #C25617",
"X. c #C65817",
"o. c #C35718",
"O. c #C65919",
"+. c #CD5E1A",
"@. c #D05F1A",
"#. c #CE611C",
"$. c #D1631D",
"%. c #D46A1D",
"&. c #D8691E",
"*. c #D26C20",
"=. c #C57B28",
"-. c #D67222",
";. c #D97422",
":. c #DC7821",
">. c #DE7F28",
",. c #E27A27",
"<. c #E37E29",
"1. c #A78122",
"2. c #A88122",
"3. c #A9812C",
"4. c #BA8226",
"5. c #B08129",
"6. c #BF852B",
"7. c #BE882C",
"8. c #CA8326",
"9. c #C0862B",
"0. c #C0882B",
"q. c #DF8229",
"w. c #D1882F",
"e. c #D6972F",
"r. c #D6982F",
"t. c #DC9C2E",
"y. c #C08632",
"u. c #DB9637",
"i. c #DC9637",
"p. c #DC9B37",
"a. c #DC9738",
"s. c #DC9838",
"d. c #E08227",
"f. c #E18229",
"g. c #E1882C",
"h. c #ED8E2E",
"j. c #EF962F",
"k. c #EF992F",
"l. c #F0972E",
"z. c #F19A2F",
"x. c #E08B30",
"c. c #E78F32",
"v. c #EB8D32",
"b. c #E79232",
"n. c #E89032",
"m. c #EE9431",
"M. c #EE9536",
"N. c #EF9736",
"B. c #EF9834",
"V. c #F09637",
"C. c #F29B32",
"Z. c #F19B38",
"A. c #F49B38",
"S. c #F39C39",
"D. c #F49C38",
"F. c #F49E3B",
"G. c #D9A131",
"H. c #EDA634",
"J. c #F5A131",
"K. c #F6A239",
/* pixels */
"X . . o o o o o o o o o o o o o o o o o o o o o o o o o o o o o o o o o o o o o o o o o o o o o o o o o o o o o o o o o o o o   ",
"o # # # # # # # # # % # # # % # & # % % # # % % % # # % # # # % % % % % % % % % # # # # # # # # # # # # # & # # # # # # # # # . ",
"o # # # # # # # # # & & # # # # & & # & & & # & # # # $ & & # # # # # # # # # # # # & & # & & # # # & & # # # # # # # # # # # o ",
"o # #  .a.s.s.u.a.i.i.i.u.i.u.i.u.u.u.i.u.u.i.p.6 > > ' u.u.u.i.u.u.i.i.u.i.u.u.i.u.u.i.u.u.u.u.u.i.i.| > > z p.u.u.u.u.~ # # . ",
"o # # y.F.F.F.F.F.F.F.F.F.F.F.F.F.F.F.F.F.F.F.K.8 > : 7.F.F.F.F.F.F.F.F.F.F.F.S.F.F.S.S.F.S.F.S.S.S.S.w., , n S.F.Z.Z.Z.3.# # o ",
"# # # y.F.F.F.F.F.F.F.F.F.F.F.Z.Z.F.F.F.F.A.F.K.d , , 7.F.F.F.F.F.F.F.F.F.F.F.F.F.F.F.F.S.S.F.A.Z.C.Z.w.3 1 n F.C.C.Z.Z.3.# # @ ",
"# # & 6.Z.Z.Z.c.v.v.v.v.c.v.v.v.c.c.v.v.v.c.v.n.s 1 1 { c.c.v.v.n.n.v.v.n.c.c.c.n.n.c.c.c.c.v.c.x.x.x.=.3 3 v b.v.v.c.v.( # # o ",
"# # & | v.M.M.$.$.$.$.$.$.$.$.$.$.$.$.$.$.$.$.&.w 1 2 G $.$.$.$.$.$.$.$.$.$.$.$.$.$.$.$.$.$.$.#.S S S V 1 1 f $.$.$.$.$.b # # o ",
"O # # =.M.V.M.$.%.$.$.$.$.$.$.$.$.$.$.$.$.$.$.&.w 1 1 L $.$.$.$.$.$.$.$.$.$.$.$.$.$.$.$.$.$.$.#.S S S B 1 1 f &.$.$.$.$.c # # o ",
"O # & 9.V.V.M.$.$.$.#.#.#.#.$.$.$.$.$.$.$.$.$.&.w 1 1 G $.$.$.#.#.#.#.#.#.#.#.#.#.$.$.$.$.$.$.#.K K K Z 3 3 f %.$.$.$.$.j # # o ",
"# # & 6.V.V.M.$.$.%.K S S D $.$.$.$.$.$.$.$.$.&.w 3 3 G $.$.$.K A V A A A A S S S $.$.$.$.$.$.$.$.$.$.P 3 3 f $.$.$.$.$.j # # o ",
"O # & 6.V.V.M.$.$.%.K S S D $.$.$.$.$.$.$.$.$.%.w 1 1 F $.$.$.K S V V A S S S S S #.#.#.#.$.$.$.$.$.$.P 3 3 f $.$.#.#.#.j # # . ",
"# # & | v.M.M.$.$.%...K D K $.$.$.$.$.$.$.$.$.%.0 3 3 F $.#.#.D S S A S S S S S S #.#.#.#.#.$.$.$.$.#.P 3 3 t #.#.#.#.#.j # # . ",
"# # & C O.#.$.$.$.$.$.$.$.$.$.$.$.K S S S S S S 4 3 3 F #.#.#.o.K D S S S S S S S S S S S S S S S S Z B 1 3 0 S S V O.#.h # # . ",
"+ # & C +.#.$.$.$.$.$.$.$.$.$.$.$.K S S S S S D 4 3 3 F #.#.#.O.o.K S S S S S S S S S S S S S S S S S B 1 1 0 S S S O.#.h # # o ",
"o # & C +.#.$.$.$.$.$.$.$.$.$.$.$.K D S S S S D 4 3 1 G #.+.+.+.O.K S S S S S S S S S S S S S S S S Z B 1 1 0 S S S +.#.j # # . ",
"O # & < w u u u e e e e u e e e e 0 0 0 0 0 0 0 1 1 1 5 e e e e e 0 0 0 0 0 0 0 0 0 0 0 0 0 0 0 0 0 0 4 , , 3 0 0 0 e e < & # o ",
"O # # - : , 1 , , , , 1 1 , , , , , , 1 1 1 2 , , , , , 1 1 1 1 2 1 1 2 , , , , , , 1 , , , , , , , , , , , , , , , , , - # # o ",
"O # & - , , , 1 1 1 1 1 1 , , , , , 1 2 1 1 1 2 , 1 1 , 1 1 1 1 1 1 1 1 , , , , , , 1 1 , , , 1 , , , , , , , , , , , , - & # o ",
"o % & Q 6.9.9./ [ [ / / / c , , : 7.0.0.0.0.0.7.7.7.7.0.7.7.0.7.0.0.0.7.7.7.k , , Y 7.7.7.7.6.6.7.6.7.7.7.7.7.7.7.] E E k # # o ",
"o % & 9.C.C.C.<.f.f.<.<.,.I 1 1 : H.C.C.C.C.C.C.C.C.C.C.C.C.C.C.C.C.C.C.C.C.Y 1 1 { C.C.C.C.C.C.C.C.C.C.C.C.C.C.C.f.;.;.m # # o ",
"O # & 9.C.C.C.<.f.f.<.:.;.L 1 1 : H.C.C.C.C.C.C.C.C.C.C.C.C.C.C.C.C.C.C.C.C.Y 1 1 { C.C.C.C.C.C.C.C.C.C.C.C.C.C.C.g.;.-.b # # o ",
"O & & ^ d.d.q.;.;.;.*.#.#.C 1 3 1 q.q.q.q.q.d.d.d.q.q.d.d.q.q.d.d.d.d.d.d.f.x 1 1 W q.q.q.q.q.q.q.q.q.q.q.q.q.q.>.-.*.*.c # # o ",
"# # & L $.$.$.$.$.$.o.D S t 1 3 , $.$.$.$.$.$.$.$.$.$.$.$.$.$.$.$.$.$.$.$.%.f 1 1 G $.$.$.$.$.$.$.$.$.$.$.$.$.$.$.$.#.#.j & # o ",
"# & & L $.$.$.$.$.$...S S t 3 3 1 $.$.$.$.$.$.$.$.$.$.$.$.$.$.$.$.$.$.$.$.$.f 3 1 F $.$.$.$.$.$.$.$.$.$.$.$.$.$.$.$.#.#.j # # . ",
"O & & L $.$.$.O.+.+.K S S t 3 3 1 $.#.$.#.+.+.O.$.$.$.$.$.$.$.$.$.$.$.$.$.$.f 3 3 F $.$.#.+.O.O.$.$.$.$.$.$.$.$.$.$.#.#.j # # o ",
"O & & F $.$.$.S S S S S S t 3 3 1 $.#.#.O.S S A #.$.$.$.$.$.$.$.$.$.$.$.$.$.f 3 3 Z #.#.o.S S S $.$.$.$.$.$.$.$.$.#.#.#.j # # o ",
"o $ & F #.$.$.S S S S S S t 3 3 1 $.#.$.O.S S S #.$.$.$.$.$.$.$.$.$.$.$.$.$.f 4 4 Z #.#.o.S S S $.$.$.$.$.$.$.$.$.#.#.#.j # # o ",
"# $ & C +.#.#.S S S S S S t 1 1 1 $.#.#...S S S #.$.$.$.#.#.#.#.#.#.#.#.#.#.a 4 4 C #.#.o.S S S #.#.#.#.$.$.#.#.#.#.#.#.j # # o ",
"O % & i S S S S S S S S S t 3 3 1 $.#.#.#.+.+.+.#.#.$...S S S S S S S S S S q 4 4 y S S D D S S S D K K +.+.O.D D D S D f & & o ",
"O # & t S D S S S S S S S t 3 3 2 $.+.#.#.#.$.#.#.#.#.o.S S S S S S S S S D q 4 4 g S D D D S S S K K ..+.+.O.K K D S S i & & o ",
"O % & y D K K D D D D D S y 3 3 , $.$.$.$.$.%.$.$.$.$.O.K K D D D D S D D K e 4 4 B K K K K K K K K ..O.+.+.O.K K D D S i # # o ",
"O & & < 4 0 0 0 0 0 0 0 0 4 1 1 , e e e e e e e e e e e 0 0 0 0 0 0 0 0 0 0 3 3 3 4 0 0 q 0 0 0 0 0 q q e e q 0 0 0 0 0 < & # . ",
"O & & - > , , 1 , , 1 1 1 , , , 1 1 1 1 1 1 1 1 1 1 1 , 1 1 1 1 1 1 1 1 1 1 1 , , 1 1 1 1 1 1 1 1 1 1 1 1 , 1 1 , , , < > # # o ",
"O # & ; : > , , , , , , , , , , , , , 2 , , , , , , , , , , , , , 1 , , , , , , , , 1 , 1 , 1 , , , , 1 1 , , , , , > > > # # . ",
"o # & ` e.e.r.e.e.e.e.e.e.r.r.e.e.e.e.e.e.r.r.r.7 , , _ e.e.r.e.e.e.e.r.e.e.e.e.e.r.e.e.r.r.r.e.e.e.e.{ , , l r.e.e.e.e.T & # . ",
"O # & 0.C.C.C.C.C.C.C.C.C.C.C.C.C.C.C.C.C.C.C.C.d 1 1 4.C.C.C.C.C.C.C.C.C.C.C.C.C.C.C.C.C.C.C.C.C.C.C.8.1 1 n C.C.C.C.C.` & # o ",
"# # & 0.C.C.C.C.C.C.C.C.C.C.C.C.C.C.C.C.C.C.C.J.d 3 1 4.C.C.C.C.C.C.C.C.C.C.C.C.C.C.C.C.C.C.C.C.C.C.C.8.1 1 n C.C.C.C.C.` & # o ",
"O % & } h.m.B.;.;.;.;.;.;.;.;.;.;.;.;.;.;.-.;.:.w 3 3 E -.-.-.;.;.-.;.;.;.;.;.;.;.;.;.;.;.-.;.;.-.*.*.I 1 1 h ;.;.;.;.;.R & # . ",
"O & & =.j.m.m.$.$.$.$.$.$.$.$.$.$.$.$.$.$.$.$.%.0 3 3 G $.$.$.$.$.$.$.$.$.$.$.$.$.$.$.$.$.$.$.$.$.#.#.J 1 1 f $.$.$.$.$.c # # . ",
"# # & 6.m.m.m.#.$.$.$.$.$.$.$.$.$.$.$.$.$.$.$.%.0 3 3 F $.#.#.$.$.#.#.$.$.$.$.$.$.$.$.$.#.#.$.$.#.#.#.J 1 1 i $.$.#.#.#.j & # o ",
"# # & 6.m.m.m.#.$.$.$.$.$.$.$.$.$.$.$.$.$.$.$.%.0 3 3 F #.#.#.O.K K K K ..K $.$.$.$.$.$.#.$.$.$.#.#.#.J 3 3 t $.#.#.#.#.j & # o ",
"O & & | m.m.m.$.$.$.$.$.$.$.$.$.$.$.$.$.$.$.$.%.0 4 4 F #.#.#.K S S S S S S #.#.$.$.$.$.$.#.#.#.#.#.#.J 3 3 i $.#.#.#.#.g # # . ",
"# & & | h.m.m.$.$.$.$.$.$.$.$.$.$.$.$.$.$.#.$.%.0 4 3 F #.#.#.K S S S S S S #.#.$.$.$.$.$.#.$.#.#.#.#.J 3 3 t $.#.#.#.#.g # # . ",
"O & & ] f.g.g.+.+.+.+.$.$.$.$.$.$.#.+.+.+.O.O.+.0 3 3 F +.#.#...K K K K K K #.#.$.$.#.#.$.#.#.#.O.O.O.S 3 4 t +.O.O.O.O.f # # o ",
"O & & B D S S S S S O.$.$.$.$.$.#.O...S S V V V 4 4 3 Z O.+.+.+.+.+.+.#.+.+.#.#.#.#.#.#.#.#.#.O.V V V y 3 3 0 S S S S S 0 # & o ",
"O & & g S S S S S S O.#.#.$.#.#.#.o.K S S V V V 4 3 3 Z O.+.+.+.+.+.#.#.#.#.#.#.#.#.#.#.#.#.#.O.V V V y 3 4 q S Z Z S S 0 # # o ",
"# & & B K K K D D D +.%.%.%.%.$.$.O...S S S S S 4 3 3 Z +.#.$.$.$.$.%.%.%.%.%.%.%.%.%.%.%.%.$.+.V Z S p 3 3 q S S S S S 0 & # o ",
"O # & > 3 3 3 3 1 1 3 3 3 3 3 3 3 3 1 1 1 1 2 2 1 1 1 1 3 3 3 3 3 3 3 3 3 3 3 3 3 3 3 3 3 3 3 3 1 1 3 1 1 1 1 1 1 , , , - & # o ",
"O # & > 1 1 1 1 1 1 1 1 1 1 1 1 1 1 1 1 1 1 1 1 1 1 1 1 1 1 1 1 1 1 1 1 1 1 1 1 1 1 1 1 1 1 3 3 1 1 1 1 , , 1 1 1 1 , , - & # . ",
"# & & * > , , , , , , , , , 1 1 1 , , , , , , , , , , , , , , , , , , , , , , 1 , , , , , , , , , , , , < < < , , , > > = & # . ",
"# # & 5.t.t.t.t.t.t.t.t.t.) , , : G.t.t.t.t.t.t.t.t.t.t.t.t.t.t.t.t.t.t.t.t.U 1 1 _ t.t.t.t.t.t.t.t.t.t.t.t.t.t.t.t.t.t.! & # o ",
"O # & | l.j.l.l.l.l.l.l.j.} , 1 : H.z.z.l.l.l.l.j.j.j.l.j.l.l.l.l.l.l.l.l.z.Y 1 , { j.z.z.k.z.z.z.k.j.z.z.z.z.z.z.z.j.j.2.& # o ",
"O # & 7.C.C.C.z.z.z.z.z.z.} 1 1 : H.z.z.z.z.z.z.z.z.z.z.z.z.z.z.z.z.z.z.z.z.Y 1 1 { k.z.z.z.z.z.z.z.z.z.z.z.z.z.z.z.k.C.1.& # o ",
"# # & H %.%.%.&.&.&.&.%.%.G 1 1 : %.%.&.&.&.&.&.&.%.%.&.&.&.&.&.&.%.&.&.&.&.h 1 1 H %.&.&.&.&.&.&.&.&.&.&.&.&.&.&.%.%.%.c & # o ",
"O # & L $.$.$.$.$.+.@.$.+.Z 3 3 , $.+.+.+.@.$.@.@.+.@.$.$.$.$.$.$.@.@.@.+.+.t 3 3 F $.$.$.$.$.$.#.#.$.$.$.$.#.#.@.#.#.#.j & # o ",
"# & & J #.$.$.$.@.+.+.+.+.Z 3 3 , $.+.+.+.+.@.@.+.+.+.@.+.+.@.@.#.+.+.+.+.+.t 3 3 Z +.+.+.+.+.+.+.+.+.+.+.+.+.+.+.+.+.+.j & # o ",
"# # & C O.O.O.O.O.O.o.O.X.B 4 4 1 X...X.O.O.X.X.X.O.O.X.O.O.O.O.O.O.O.X.o.X.e 4 4 B O.O.O.O.O.O.O.O.O.O.O.O.o.X.O.O.O.O.g & # o ",
"O # & t V V V V V V V V V t 9 9 4 V M V V V V V N V V V V V V V V V V V B V q 4 4 r B V V V V V V V V V V V V V V V V V q & # o ",
"# # & t V V V V V V V V V t 9 9 4 V V V V V V V V V V V V V V V V V V V V V q 4 9 t B B B B B V V V V V B B B V V V B B q & # o ",
"# # & t V V V V V V V V N y r r 9 V N N V V N N N V V N V V V N N V N N N N q q q y V N N V V N N N N N N N N N N V N M 0 # # o ",
"o # # # # # # # # # # # # # # # # # # # & & & & # # # # # & # # # # # # # & & & # # # # # # # # # # # # # # # # # # # # # # # . ",
"o # # # # # # & # # # # & & & # # # # # & & & & # # # # & & & & # # # # & & & & # # # # & # # & # # # # # # # # # # # # # # # . ",
". o @ # # # @ # # o o @ # + + o @ @ + o # # + + o @ o o # # o o o o o o o + + + @ + # @ @ + o + o o o o # # @ @ + @ o o o o o X "
};
